<?xml version="1.0" encoding="iso-8859-1"?>
<svg fill="#000000" height="800px" width="800px" version="1.1" id="Layer_1" xmlns="http://www.w3.org/2000/svg" xmlns:xlink="http://www.w3.org/1999/xlink"
	 viewBox="0 0 512 512" xml:space="preserve">
<g>
	<g>
		<path d="M503.149,402.686L350.471,228.962l91.874-104.525c3.667-4.171,4.168-10.252,1.233-14.967L379.159,5.941
			C376.969,2.415,372.914,0,368.467,0H143.536c-4.435,0-8.497,2.405-10.693,5.941L68.424,109.468
			c-2.935,4.715-2.433,10.796,1.233,14.967l91.872,104.527L8.853,402.686c-7.143,8.131-1.34,20.908,9.461,20.908h65.099v75.799
			c0,11.682,14.466,16.948,22.053,8.314l150.538-171.27l150.533,171.27c7.644,8.698,22.053,3.3,22.053-8.314v-75.799h65.097
			C504.511,423.594,510.279,410.8,503.149,402.686z M340.631,25.188c-8.482,9.649-76.175,86.668-84.63,96.288
			c-8.608-9.793-74.939-85.263-84.63-96.288H340.631z M94.752,114.833l50.519-81.189c10.666,12.136,84.087,95.67,93.963,106.908
			c-34.452,39.199-49.435,56.245-60.938,69.334L94.752,114.833z M108.598,465.988V411c0-6.957-5.639-12.594-12.594-12.594H46.147
			L366.733,33.644l50.519,81.189C373.713,164.366,152.845,415.649,108.598,465.988z M415.997,398.406L415.997,398.406
			c-6.955,0-12.594,5.637-12.594,12.594v54.989L272.772,317.361c48.813-55.534,36.02-40.982,60.935-69.322l132.149,150.367H415.997z
			"/>
	</g>
</g>
</svg>