<?xml version="1.0" encoding="iso-8859-1"?>
<svg fill="#000000" height="800px" width="800px" version="1.1" id="Layer_1" xmlns="http://www.w3.org/2000/svg" xmlns:xlink="http://www.w3.org/1999/xlink"
	 viewBox="0 0 512 512" xml:space="preserve">
<g>
	<g>
		<path d="M426.665,179.649c-42.096,0-76.351,34.25-76.351,76.351c0,42.101,34.254,76.351,76.351,76.351s76.351-34.25,76.351-76.351
			C503.016,213.899,468.761,179.649,426.665,179.649z M476.068,242.526c0,9.908-8.062,17.965-17.965,17.965
			c-9.904,0-17.965-8.057-17.965-17.965s8.061-17.965,17.965-17.965C468.007,224.562,476.068,232.619,476.068,242.526z
			 M377.262,269.474c0-4.952,4.026-8.982,8.982-8.982c4.956,0,8.982,4.031,8.982,8.982c0,4.952-4.026,8.982-8.982,8.982
			C381.288,278.456,377.262,274.425,377.262,269.474z M426.665,314.386c-16.559,0-31.518-6.942-42.153-18.053
			c0.574,0.036,1.147,0.088,1.732,0.088c14.859,0,26.947-12.088,26.947-26.947c0-14.86-12.088-26.947-26.947-26.947
			c-6.7,0-12.82,2.47-17.539,6.53c3.447-28.93,28.118-51.442,57.96-51.442c11.421,0,22.077,3.308,31.085,9
			c-19.651,0.192-35.576,16.219-35.576,35.912c0,19.811,16.114,35.93,35.93,35.93c10.127,0,19.272-4.228,25.809-10.992
			C478.57,294.185,454.932,314.386,426.665,314.386z"/>
	</g>
</g>
<g>
	<g>
		<path d="M411.218,346.109c-4.395-2.307-9.816-0.611-12.123,3.772c-20.535,39.067-52.559,69.454-90.682,87.957
			c-11.493-15.504-41.559-51.227-68.73-42.15c-25.837,8.615-26.64,44.006-25.219,62.334c-30.846-0.843-59.987-8.634-85.916-21.857
			l25.419-5.183c4.193-0.838,6.722-4.526,6.722-8.807V404.21c0-7.212-5.096-14.857-10.491-22.947
			c-2.684-4.031-5.228-10.782-7.474-12.982v-80.842c0-12.908,5.349-23.71,10.05-34.153c4.325-9.627,8.66-18.724,8.66-28.724
			c0-22.32-27.647-44.912-80.717-44.912c-29.625,0-34.765-17.935-35.675-24.718c17.294-29.821,42.024-54.833,71.592-72.513
			c13.689,8.318,50.509,28.135,77.272,19.117c6.614,10.702,20.05,28.627,37.103,31.395c1.368,0.224,2.882,0.364,4.504,0.364
			c6.307,0,14.336-2.158,22.344-10.171c28.079-28.096,41.412-30.355,52.772-25.14c19.037,8.753,30.995,2.648,35.195-0.306
			c21.947,17.455,40.421,39.606,53.859,65.56c2.272,4.399,7.658,6.14,12.105,3.851c4.403-2.281,6.123-7.702,3.842-12.105
			C377.621,81.549,302.683,35.931,220.069,35.931c-38.632,0-74.963,10.017-106.552,27.572c-0.732,0.284-1.417,0.679-2.059,1.152
			c-34.438,19.625-63.092,48.276-82.721,82.712c-0.469,0.633-0.862,1.319-1.156,2.063C10.022,181.025,0,217.362,0,256
			c0,121.346,98.719,220.069,220.069,220.069c1.27,0,2.533-0.044,3.8-0.066c0.228,0.018,0.45,0.061,0.682,0.061
			c0.36,0,0.728-0.046,1.096-0.092c79.829-1.998,152.017-46.706,189.341-117.732C417.305,353.85,415.612,348.416,411.218,346.109z
			 M220.069,53.895c38.631,0,75.421,10.882,106.85,30.446c-2.395-0.306-5.302-1.077-8.781-2.679
			c-26.667-12.25-50.816,6.592-72.982,28.759c-5.096,5.092-8.886,5.175-11.245,4.781c-10.684-1.724-23.009-18.952-28.272-29.403
			c-1.149-2.298-3.237-3.996-5.728-4.654c-2.483-0.649-5.132-0.215-7.281,1.206c-13.401,8.935-39.462-0.907-57.004-9.946
			C161.337,60.532,189.94,53.895,220.069,53.895z M52.899,370.889c-13.474-19.603-22.82-42.079-28.816-64.535h9.724l11.634,5.59
			c3.386,17.25,7.458,41.933,7.458,47.354V370.889z M105.118,422.476c-12.985-8.954-24.877-19.378-35.428-31.043
			c1.044-1.468,1.173-3.251,1.173-5.188v-26.947c0-9.395-7.134-48.009-8.66-55.658c-0.544-2.715-2.059-5.031-4.542-6.272
			l-17.84-8.508c-1.246-0.623-2.498-0.472-3.893-0.472H20.414c-1.607-11.228-2.45-21.221-2.45-31.914
			c0-28.284,5.849-55.463,16.388-79.927c7.529,11.368,21.699,21.185,46.489,21.185c41.026,0,62.877,15.59,62.877,26.888
			c0,6.149-3.665,13.168-7.331,21.33c-5.219,11.605-11.629,24.729-11.629,41.488v80.842c0,7.21,5.096,14.855,10.491,22.947
			c2.684,4.03,7.474,10.781,7.474,12.983v10.601l-37.195,7.539C105.383,422.379,105.258,422.441,105.118,422.476z M232.495,457.705
			c-1.233-15.326-0.395-40.55,12.873-44.973c12.778-4.251,33.399,16.326,46.017,32.415
			C272.738,452.16,252.929,456.462,232.495,457.705z"/>
	</g>
</g>
<g>
	<g>
		<path d="M421.454,391.767c-0.447-1.079-1.079-2.067-1.886-2.873c-0.447-0.452-0.903-0.811-1.351-1.171
			c-0.535-0.269-1.079-0.535-1.614-0.807c-0.544-0.18-1.079-0.361-1.711-0.539c-1.702-0.268-3.5-0.088-5.114,0.539
			c-1.167,0.452-2.07,1.079-2.965,1.978c-0.807,0.806-1.439,1.794-1.886,2.873c-0.544,1.079-0.719,2.246-0.719,3.505
			c0,1.165,0.175,2.333,0.719,3.411c0.447,1.08,1.079,2.067,1.886,2.874c0.895,0.899,1.798,1.531,2.965,1.978
			c1.079,0.447,2.246,0.719,3.412,0.719c0.535,0,1.167-0.092,1.702-0.18c0.631-0.18,1.167-0.359,1.711-0.539
			c0.535-0.268,1.079-0.54,1.614-0.807c0.448-0.36,0.904-0.719,1.351-1.171c0.807-0.807,1.439-1.794,1.886-2.874
			c0.448-1.078,0.719-2.246,0.719-3.411C422.174,394.012,421.902,392.846,421.454,391.767z"/>
	</g>
</g>
<g>
	<g>
		<path d="M446.516,433.806c-2.07-2.067-5.211-3.057-8.175-2.517c-0.535,0.178-1.079,0.359-1.614,0.539
			c-0.544,0.272-1.079,0.538-1.623,0.807c-0.447,0.36-0.895,0.719-1.342,1.171c-0.807,0.806-1.439,1.794-1.886,2.873
			c-0.447,1.079-0.719,2.246-0.719,3.412c0,1.258,0.272,2.338,0.719,3.503c0.447,1.08,1.079,2.067,1.886,2.874
			c1.702,1.71,4.044,2.605,6.377,2.605c2.333,0,4.667-0.895,6.377-2.605c1.614-1.614,2.605-3.952,2.605-6.377
			C449.121,437.758,448.13,435.42,446.516,433.806z"/>
	</g>
</g>
<g>
	<g>
		<path d="M412.472,445.661c-0.447-1.079-1.079-2.067-1.974-2.873c-0.359-0.452-0.816-0.811-1.351-1.171
			c-0.447-0.269-0.991-0.535-1.526-0.807c-0.544-0.18-1.079-0.361-1.711-0.447c-1.702-0.36-3.5-0.18-5.114,0.447
			c-1.167,0.452-2.07,1.079-2.965,1.978c-0.807,0.806-1.439,1.794-1.886,2.873c-0.447,1.079-0.719,2.246-0.719,3.505
			c0,2.333,0.982,4.671,2.605,6.285c1.702,1.711,4.044,2.697,6.377,2.697c0.535,0,1.167-0.092,1.702-0.18
			c0.631-0.18,1.167-0.359,1.711-0.539c0.535-0.268,1.079-0.54,1.526-0.807c0.535-0.36,0.991-0.719,1.351-1.171
			c0.895-0.807,1.526-1.794,1.974-2.874c0.448-1.078,0.719-2.246,0.719-3.411C413.191,447.907,412.919,446.74,412.472,445.661z"/>
	</g>
</g>
<g>
	<g>
		<path d="M430.972,106.036c-0.088-0.539-0.263-1.167-0.535-1.706c-0.184-0.539-0.447-1.079-0.807-1.526
			c-0.36-0.448-0.719-0.987-1.079-1.347c-3.412-3.416-9.43-3.324-12.754,0c-0.359,0.36-0.807,0.899-1.079,1.347
			c-0.359,0.447-0.631,0.987-0.903,1.526c-0.175,0.54-0.351,1.167-0.447,1.706c-0.175,0.539-0.175,1.167-0.175,1.798
			c0,1.167,0.175,2.246,0.623,3.412c0.544,1.079,1.175,2.066,1.982,2.873c1.702,1.711,4.044,2.697,6.377,2.697
			c2.333,0,4.667-0.987,6.377-2.697c0.807-0.807,1.439-1.794,1.886-2.873c0.448-1.079,0.719-2.246,0.719-3.412
			C431.156,107.202,431.068,106.575,430.972,106.036z"/>
	</g>
</g>
<g>
	<g>
		<path d="M464.481,74.509c-0.903-0.811-1.798-1.526-2.965-1.978c-1.614-0.627-3.412-0.807-5.211-0.447
			c-0.535,0.088-1.079,0.267-1.614,0.447c-0.544,0.272-1.079,0.539-1.623,0.807c-0.447,0.359-0.895,0.719-1.342,1.171
			c-1.623,1.614-2.605,3.952-2.605,6.285c0,0.631,0.088,1.259,0.175,1.798c0.097,0.539,0.272,1.167,0.544,1.706
			c0.175,0.54,0.447,1.079,0.807,1.526c0.36,0.452,0.719,0.987,1.079,1.346c0.447,0.452,0.895,0.811,1.342,1.171
			c0.544,0.267,1.079,0.539,1.623,0.807c0.535,0.18,1.079,0.36,1.614,0.539c0.631,0.088,1.167,0.088,1.798,0.088
			c1.167,0,2.333-0.18,3.412-0.627c1.079-0.447,2.061-1.167,2.965-1.978c0.36-0.359,0.719-0.895,1.079-1.346
			c0.359-0.447,0.623-0.987,0.807-1.526c0.272-0.539,0.448-1.167,0.535-1.706c0.097-0.54,0.184-1.167,0.184-1.798
			C467.086,78.461,466.095,76.123,464.481,74.509z"/>
	</g>
</g>
<g>
	<g>
		<path d="M482.445,155.351c-2.158-2.066-5.21-3.057-8.175-2.517c-0.535,0.179-1.079,0.36-1.614,0.539
			c-0.544,0.272-1.079,0.539-1.623,0.807c-0.447,0.359-0.895,0.719-1.342,1.171c-1.623,1.614-2.605,3.952-2.605,6.377
			c0,2.333,0.982,4.671,2.605,6.285c0.447,0.452,0.895,0.811,1.342,1.171c0.544,0.267,1.079,0.539,1.623,0.807
			c0.535,0.18,1.079,0.36,1.614,0.539c0.631,0.088,1.254,0.18,1.798,0.18c2.333,0,4.667-0.987,6.377-2.697
			c1.614-1.614,2.605-3.952,2.605-6.285C485.051,159.303,484.06,156.965,482.445,155.351z"/>
	</g>
</g>
<g>
	<g>
		<path d="M508.858,74.023c-3.754-3.224-9.43-2.789-12.658,0.974l-53.895,62.877c-3.237,3.768-2.798,9.439,0.974,12.667
			c1.693,1.452,3.772,2.162,5.842,2.162c2.526,0,5.044-1.066,6.816-3.136l53.895-62.877
			C513.068,82.922,512.629,77.251,508.858,74.023z"/>
	</g>
</g>
<g>
	<g>
		<path d="M384.446,165.277l-26.947-35.93c-2.982-3.969-8.605-4.785-12.57-1.794c-3.974,2.974-4.781,8.605-1.798,12.575
			l26.947,35.93c1.763,2.351,4.456,3.592,7.193,3.592c1.877,0,3.763-0.583,5.377-1.798
			C386.621,174.877,387.428,169.246,384.446,165.277z"/>
	</g>
</g>
<g>
	<g>
		<path d="M347.683,200.246l-35.93-35.93c-3.509-3.509-9.193-3.509-12.702,0c-3.509,3.509-3.509,9.193,0,12.702l35.93,35.93
			c1.755,1.754,4.053,2.632,6.351,2.632c2.298,0,4.596-0.877,6.351-2.632C351.192,209.439,351.192,203.754,347.683,200.246z"/>
	</g>
</g>
<g>
	<g>
		<path d="M323.367,243.477h-53.894c-4.965,0-8.982,4.022-8.982,8.982c0,4.961,4.017,8.982,8.982,8.982h53.894
			c4.965,0,8.982-4.022,8.982-8.982C332.35,247.499,328.332,243.477,323.367,243.477z"/>
	</g>
</g>
<g>
	<g>
		<path d="M373.262,333.859c-4.149-2.768-9.71-1.636-12.456,2.491l-17.965,26.947c-2.754,4.127-1.64,9.706,2.491,12.456
			c1.535,1.022,3.263,1.509,4.974,1.509c2.903,0,5.754-1.404,7.482-4l17.965-26.947
			C378.507,342.188,377.393,336.609,373.262,333.859z"/>
	</g>
</g>
<g>
	<g>
		<path d="M347.683,290.07c-3.509-3.509-9.193-3.509-12.702,0L299.051,326c-3.509,3.509-3.509,9.193,0,12.702
			c1.755,1.754,4.053,2.632,6.351,2.632c2.298,0,4.596-0.877,6.351-2.632l35.93-35.93
			C351.192,299.263,351.192,293.579,347.683,290.07z"/>
	</g>
</g>
<g>
	<g>
		<path d="M510.2,425.767l-53.895-71.859c-2.974-3.974-8.614-4.789-12.57-1.794c-3.974,2.974-4.781,8.605-1.798,12.575
			l53.895,71.859c1.763,2.35,4.456,3.592,7.193,3.592c1.877,0,3.763-0.583,5.377-1.798
			C512.375,435.368,513.182,429.736,510.2,425.767z"/>
	</g>
</g>
</svg>