<?xml version="1.0" encoding="iso-8859-1"?>
<svg fill="#000000" height="800px" width="800px" version="1.1" id="Layer_1" xmlns="http://www.w3.org/2000/svg" xmlns:xlink="http://www.w3.org/1999/xlink"
	 viewBox="0 0 512 512" xml:space="preserve">
<g>
	<g>
		<path d="M401.37,226.605c-6.045,0-11.975,0.495-17.759,1.432l-16.364-68.729l55.399-79.142h30.031
			c4.427,0,8.017-3.588,8.017-8.017c0-4.428-3.589-8.017-8.017-8.017h-34.205c-2.616,0-5.068,1.276-6.567,3.419L396.34,89.787
			h-80.482c-0.408,0-0.806,0.041-1.198,0.099l-18.196-22.744c-1.521-1.902-3.825-3.009-6.259-3.009H256
			c-4.427,0-8.017,3.588-8.017,8.017c0,4.428,3.589,8.017,8.017,8.017h30.352l64.88,81.1l7.413,31.134h-43.321v-9.086
			c0-4.428-3.589-8.017-8.017-8.017h-85.511c-4.427,0-8.017,3.588-8.017,8.017v9.086h-18.171v-34.739
			c0-0.181-0.015-0.357-0.027-0.534h17.663c4.427,0,8.017-3.588,8.017-8.017c0-4.428-3.589-8.017-8.017-8.017h-40.863l-15.41-7.705
			c-3.96-1.982-8.776-0.376-10.755,3.585c-1.981,3.96-0.375,8.776,3.585,10.756l17.102,8.551c1.114,0.557,2.34,0.847,3.585,0.847
			h9.112c-0.012,0.177-0.027,0.354-0.027,0.534v40.656l-21.842,38.831c-14.3-6.758-30.266-10.545-47.102-10.545
			c-9.364,0-18.667,1.174-27.652,3.486c-4.287,1.104-6.869,5.475-5.766,9.763c1.104,4.287,5.476,6.866,9.762,5.766
			c7.681-1.979,15.64-2.981,23.656-2.981c13.983,0,27.265,3.053,39.22,8.521l-4.745,8.435c-10.545-4.701-22.204-7.336-34.475-7.336
			c-46.856,0-84.977,38.12-84.977,84.977c0,46.857,38.121,84.977,84.977,84.977c44.152,0,80.534-33.851,84.588-76.96h9.666
			c-4.083,48.423-44.793,86.58-94.254,86.58c-52.161,0-94.597-42.436-94.597-94.597c0-31.072,15.282-60.185,40.88-77.876
			c3.643-2.517,4.555-7.51,2.037-11.154c-2.518-3.641-7.511-4.556-11.153-2.036C17.868,266.855,0,300.899,0,337.236
			c0,61.002,49.629,110.63,110.63,110.63c58.306,0,106.217-45.34,110.338-102.614h35.566v34.739c0,4.428,3.589,8.017,8.017,8.017
			h17.102c4.427,0,8.017-3.588,8.017-8.017c0-4.428-3.589-8.017-8.017-8.017h-9.086v-26.722h18.464
			c4.122,57.273,52.032,102.614,110.338,102.614c61.002,0,110.63-49.629,110.63-110.63S462.371,226.605,401.37,226.605z
			 M386,307.294c-8.554,4.409-14.985,12.37-17.329,21.925h-35.764c3.048-26.19,20.817-47.953,44.803-56.743L386,307.294z
			 M409.168,335.379l-3.634-15.263c7.718,1.879,13.472,8.832,13.472,17.119c0,9.725-7.912,17.637-17.637,17.637
			c-6.837,0-12.764-3.919-15.689-9.62h15.658C406.431,345.253,410.359,340.349,409.168,335.379z M385.68,329.219
			c1.059-2.064,2.508-3.893,4.257-5.387l1.283,5.387H385.68z M373.981,256.815c-31.028,10.596-54.025,38.651-57.2,72.405h-9.666
			c3.229-38.294,29.366-70.164,64.623-81.822L373.981,256.815z M358.186,144.293l-30.779-38.473h57.71L358.186,144.293z
			 M229.812,191.332h69.478v18.171h-69.478V191.332z M151.168,281.52c6.717,4.901,12.515,10.982,17.092,17.939l-31.987,15.993
			c-0.826-0.972-1.706-1.895-2.636-2.766L151.168,281.52z M175.461,313.783c1.782,4.91,3.009,10.082,3.632,15.436h-34.504
			L175.461,313.783z M110.63,406.18c-38.015,0-68.944-30.928-68.944-68.944s30.928-68.944,68.944-68.944
			c9.417,0,18.397,1.903,26.581,5.336l-17.539,31.181c-2.88-0.804-5.91-1.243-9.043-1.243c-18.565,0-33.669,15.104-33.669,33.67
			s15.105,33.67,33.67,33.67c15.804,0,29.091-10.947,32.698-25.653h35.764C175.106,379.503,145.933,406.18,110.63,406.18z
			 M110.673,345.253h15.646c-2.926,5.701-8.853,9.62-15.689,9.62c-9.725,0-17.637-7.912-17.637-17.637s7.912-17.637,17.637-17.637
			c0.237,0,0.468,0.027,0.703,0.035l-7.675,13.643C100.688,338.554,104.62,345.253,110.673,345.253z M159.068,267.475l4.743-8.431
			c11.086,7.563,20.486,17.42,27.517,28.882l-8.653,4.326C176.555,282.484,168.509,274.049,159.068,267.475z M195.218,329.22
			c-0.744-7.912-2.585-15.503-5.355-22.638l8.657-4.328c3.379,8.459,5.568,17.517,6.364,26.966H195.218z M171.692,245.031
			l20.587-36.597h21.5v9.086c0,4.428,3.589,8.017,8.017,8.017h85.511c4.427,0,8.017-3.588,8.017-8.017v-9.086h34.985l-144.601,72.3
			C197.181,266.441,185.527,254.224,171.692,245.031z M291.031,329.219h-18.463V294.48c0-4.428-3.589-8.017-8.017-8.017h-17.102
			c-4.427,0-8.017,3.588-8.017,8.017c0,4.428,3.589,8.017,8.017,8.017h9.086v26.722h-35.566
			c-0.865-12.014-3.658-23.501-8.068-34.155l152.082-76.041l3.03,12.726C325.706,245.157,294.332,283.36,291.031,329.219z
			 M401.37,431.833c-49.461,0-90.171-38.157-94.254-86.58h9.666c4.054,43.11,40.436,76.96,84.588,76.96
			c16.118,0,31.805-4.534,45.367-13.112c3.741-2.368,4.856-7.32,2.489-11.061c-2.365-3.741-7.317-4.855-11.061-2.49
			c-10.994,6.955-23.718,10.63-36.796,10.63c-35.302,0-64.476-26.676-68.463-60.927h35.764
			c3.606,14.707,16.895,25.653,32.698,25.653c18.566,0,33.67-15.105,33.67-33.67c0-18.49-14.983-33.542-33.445-33.665l-8.284-34.792
			c2.646-0.31,5.332-0.486,8.058-0.486c38.015,0,68.944,30.928,68.944,68.944c0,13.712-4.014,26.956-11.606,38.298
			c-2.463,3.678-1.477,8.658,2.202,11.121c3.681,2.462,8.659,1.477,11.122-2.203c9.366-13.99,14.316-30.317,14.316-47.216
			c0-46.857-38.121-84.977-84.977-84.977c-4.003,0-7.935,0.298-11.793,0.837l-2.241-9.414c4.58-0.684,9.266-1.042,14.035-1.042
			c52.161,0,94.597,42.436,94.597,94.597C495.967,389.398,453.53,431.833,401.37,431.833z"/>
	</g>
</g>
</svg>