<?xml version="1.0" encoding="utf-8"?>
<svg height="800px" width="800px" version="1.1" id="_x32_" xmlns="http://www.w3.org/2000/svg" xmlns:xlink="http://www.w3.org/1999/xlink"
	 viewBox="0 0 512 512"  xml:space="preserve">
<style type="text/css">
	.st0{fill:#000000;}
</style>
<g>
	<path class="st0" d="M443.957,268.889c-9.216-28.137-24.686-58.098-42.664-87.77c-26.971-44.43-59.688-88.029-85.855-120.718
		c-13.064-16.33-24.491-29.923-32.735-39.462c-4.127-4.784-7.44-8.54-9.818-11.168c-1.184-1.324-2.128-2.36-2.887-3.156
		c-0.388-0.426-0.713-0.758-1.119-1.184c-0.222-0.212-0.444-0.443-0.953-0.87c-0.278-0.249-0.574-0.536-1.378-1.119
		c-0.417-0.314-0.926-0.685-2.054-1.314c-0.592-0.296-1.324-0.666-2.526-1.101C260.747,0.62,259.072,0.046,256,0
		c-2.35,0.01-3.868,0.398-5.015,0.712c-2.23,0.685-3.155,1.268-3.924,1.675c-1.406,0.823-1.841,1.221-2.257,1.554
		c-0.75,0.592-1,0.823-1.24,1.083c-0.444,0.426-0.694,0.666-0.98,0.962c-0.518,0.537-1.074,1.13-1.786,1.906
		c-2.674,2.924-7.356,8.189-13.639,15.516c-21.956,25.611-63.13,75.844-99.234,130.526c-18.042,27.36-34.827,55.82-47.354,83.236
		c-6.246,13.703-11.437,27.166-15.128,40.249c-3.673,13.065-5.904,25.778-5.912,38.111c-0.009,54.193,22.021,103.426,57.551,138.927
		C152.575,489.997,201.799,512.018,256,512c54.201,0.018,103.425-22.003,138.918-57.542c35.53-35.501,57.551-84.734,57.551-138.927
		C452.451,300.524,449.193,284.969,443.957,268.889z M369.668,429.198c-29.155,29.109-69.219,47.068-113.668,47.096
		c-44.449-0.028-84.513-17.987-113.668-47.096c-29.118-29.146-47.067-69.219-47.086-113.668c-0.019-9.632,2.276-21.9,6.754-35.567
		c7.8-23.964,22.095-52.119,39.231-80.312c25.704-42.368,57.671-85.04,83.199-116.925c12.601-15.729,23.631-28.84,31.57-38.056
		c0.407,0.454,0.796,0.926,1.212,1.416c21.059,24.491,61.687,74.021,96.615,126.889c17.478,26.406,33.503,53.684,44.94,78.712
		c5.736,12.518,10.306,24.445,13.37,35.298c3.081,10.844,4.617,20.578,4.598,28.544C416.735,359.98,398.767,400.053,369.668,429.198
		z"/>
	<polygon class="st0" points="280.353,241.112 231.647,241.112 231.647,297.128 175.633,297.128 175.633,345.833 231.647,345.833 
		231.647,401.858 280.353,401.858 280.353,345.833 336.368,345.833 336.368,297.128 280.353,297.128 	"/>
</g>
</svg>