<?xml version='1.0' encoding='iso-8859-1'?>
<svg fill="#000000" height="800px" width="800px" version="1.1" xmlns="http://www.w3.org/2000/svg" viewBox="0 0 470 470" xmlns:xlink="http://www.w3.org/1999/xlink" enable-background="new 0 0 470 470">
  <g>
    <path d="m417.81,410.986l-125.325-154.677 40.776-50.327c18.162-22.414 28.165-50.667 28.165-79.556 0.001-69.711-56.714-126.426-126.426-126.426s-126.427,56.715-126.427,126.426c0,28.888 10.002,57.141 28.165,79.556l88.61,109.364-110.684,136.605-46.098-37.349 105.123-129.744c2.608-3.219 2.113-7.941-1.105-10.549-3.219-2.608-7.941-2.113-10.549,1.105l-109.845,135.572c-1.252,1.546-1.839,3.525-1.632,5.504 0.207,1.978 1.192,3.793 2.738,5.045l57.752,46.792c1.389,1.126 3.058,1.673 4.717,1.673 2.184,0 4.35-0.95 5.832-2.779l113.404-139.962 113.402,139.962c1.482,1.829 3.647,2.779 5.832,2.779 1.658,0 3.327-0.548 4.717-1.673l57.753-46.792c1.545-1.252 2.53-3.067 2.737-5.045 0.208-1.978-0.38-3.958-1.632-5.504zm-71.383-284.56c0,25.461-8.814,50.361-24.819,70.112l-38.775,47.856-38.179-47.121 53.191-65.648c11.755-14.507 17.968-32.078 17.968-50.814 0-15.215-4.232-29.458-11.573-41.623 25.687,20.431 42.187,51.942 42.187,87.238zm-111.427-111.426c36.289,0 65.812,29.523 65.812,65.812 0,3.985-0.353,7.903-1.033,11.731-15.074-20.184-38.999-32.546-64.779-32.546-17.095,0-33.448,5.296-47.291,15.317-3.355,2.429-4.107,7.118-1.678,10.473 2.429,3.356 7.118,4.107 10.473,1.678 11.269-8.156 24.58-12.468 38.496-12.468 24.726,0 47.352,13.976 58.583,35.875-2.048,3.968-4.512,7.754-7.394,11.31l-51.189,63.178-51.189-63.178c-9.566-11.805-14.623-26.111-14.623-41.371-2.84217e-14-36.288 29.523-65.811 65.812-65.811zm120.336,436.951l-206.943-255.412c-16.005-19.752-24.819-44.652-24.819-70.112 0-35.296 16.5-66.807 42.188-87.238-7.341,12.165-11.573,26.408-11.573,41.623 0,18.736 6.213,36.308 17.968,50.814l57.016,70.37 47.724,58.9c0.067,0.087 0.137,0.173 0.208,0.257l124.33,153.449-46.099,37.349z"/>
  </g>
</svg>