<?xml version="1.0" encoding="iso-8859-1"?>
<svg fill="#000000" height="800px" width="800px" version="1.1" id="Layer_1" xmlns="http://www.w3.org/2000/svg" xmlns:xlink="http://www.w3.org/1999/xlink"
	 viewBox="0 0 496 496" xml:space="preserve">
<g>
	<g>
		<g>
			<path d="M347.896,296H400l-0.024-38l-5.76-1.688c-0.488-0.144-46.992-14.392-77.432-72.312H352l-0.016-36.928l-4.392-2.216
				c-0.448-0.224-43.72-22.792-81.128-86.8C274.624,52.24,280,42.76,280,32c0-17.648-14.352-32-32-32s-32,14.352-32,32
				c0,10.76,5.376,20.24,13.536,26.048c-37.416,64.016-80.68,86.576-81.112,86.8L144,147.056V184h35.208
				c-30.44,57.92-76.936,72.168-77.408,72.304l-5.8,1.664V296h52.096c-31.904,74.28-93.984,96.2-94.624,96.416L48,394.232V432h160
				v64h80v-64h160v-37.768l-5.472-1.824C441.872,392.192,379.896,370.6,347.896,296z M248,16c8.816,0,16,7.184,16,16
				s-7.184,16-16,16c-8.824,0-16-7.184-16-16S239.176,16,248,16z M160,168v-11.32c12.872-7.712,51.16-34.264,84.792-93
				C245.864,63.784,246.904,64,248,64s2.136-0.216,3.208-0.32c33.632,58.736,71.912,85.288,84.792,93V168h-26.808H186.808H160z
				 M112,280v-10.36c15.4-6.152,57.624-27.576,85.136-85.64h101.736c27.512,58.064,69.736,79.496,85.136,85.64V280H112z M272,480
				h-48v-48h48V480z M432,416H64v-10.528c17.632-7.48,72.624-36.104,101.4-109.472h165.192
				C359.376,369.368,414.368,397.984,432,405.472V416z"/>
			<path d="M304,144c-13.312,0-28.304-3.936-44.544-11.704l-6.904,14.44C270.968,155.536,288.28,160,304,160V144z"/>
			<path d="M244.144,124.016c-9.208-5.576-15.104-10.232-15.168-10.28l-9.96,12.52c0.272,0.208,6.688,5.296,16.84,11.448
				L244.144,124.016z"/>
			<path d="M275.912,226.528l8.168,13.768c16.552-9.832,25.168-18.24,25.528-18.6L298.4,210.288
				C298.32,210.368,290.64,217.8,275.912,226.528z"/>
			<path d="M160,256v16c39.2,0,75.344-7.704,107.424-22.896l-6.84-14.456C230.656,248.816,196.816,256,160,256z"/>
			<path d="M196.08,355.152C239,379.256,306.44,408,384,408v-16c-78.008,0-146.312-31.832-180.08-50.808L196.08,355.152z"/>
			<path d="M163.208,334.408c0.24,0.176,6.088,4.536,16.544,11.08l8.488-13.56c-9.832-6.152-15.4-10.288-15.456-10.328
				L163.208,334.408z"/>
			<path d="M64,152c0-14.872-10.24-27.288-24-30.864V0H24v121.136C10.232,124.712,0,137.128,0,152c0,17.648,14.352,32,32,32
				S64,169.648,64,152z M32,168c-8.824,0-16-7.176-16-16c0-8.824,7.176-16,16-16c8.816,0,16,7.176,16,16
				C48,160.824,40.816,168,32,168z"/>
			<path d="M128,104c17.648,0,32-14.352,32-32c0-14.872-10.24-27.288-24-30.864V0h-16v41.136C106.232,44.712,96,57.128,96,72
				C96,89.648,110.352,104,128,104z M128,56c8.816,0,16,7.184,16,16s-7.184,16-16,16c-8.824,0-16-7.184-16-16S119.176,56,128,56z"/>
			<path d="M472,65.136V0h-16v65.136C442.232,68.712,432,81.128,432,96c0,17.648,14.352,32,32,32s32-14.352,32-32
				C496,81.128,485.76,68.712,472,65.136z M464,112c-8.824,0-16-7.184-16-16s7.176-16,16-16c8.816,0,16,7.184,16,16
				S472.816,112,464,112z"/>
			<path d="M400,232c17.648,0,32-14.352,32-32c0-14.872-10.24-27.288-24-30.864V0h-16v169.136c-13.768,3.576-24,15.992-24,30.864
				C368,217.648,382.352,232,400,232z M400,184c8.816,0,16,7.176,16,16c0,8.824-7.184,16-16,16c-8.824,0-16-7.176-16-16
				C384,191.176,391.176,184,400,184z"/>
		</g>
	</g>
</g>
</svg>