<?xml version="1.0" encoding="iso-8859-1"?>
<svg fill="#000000" height="800px" width="800px" version="1.1" id="Layer_1" xmlns="http://www.w3.org/2000/svg" xmlns:xlink="http://www.w3.org/1999/xlink"
	 viewBox="0 0 512 512" xml:space="preserve">
<g>
	<g>
		<path d="M100.073,297.891C79.127,276.945,19.782,268.8,12.8,267.636c-3.491,0-6.982,1.164-9.309,3.491S0,276.945,0,280.436
			c1.164,6.982,9.309,66.327,29.091,87.273C39.564,378.182,51.2,384,64,384s25.6-5.818,34.909-15.127
			C122.182,346.764,122.182,320,100.073,297.891z M83.782,352.582c-10.473,10.473-25.6,11.636-37.236,0
			c-9.309-9.309-16.291-36.073-20.945-58.182c22.109,3.491,48.873,11.636,58.182,20.945
			C96.582,326.982,96.582,339.782,83.782,352.582z"/>
	</g>
</g>
<g>
	<g>
		<path d="M345.6,3.491C342.109,1.164,338.618,0,335.127,0c-6.982,1.164-66.327,9.309-87.273,29.091
			C237.382,39.564,231.564,51.2,231.564,64s5.818,25.6,15.127,34.909c11.636,11.636,23.273,17.455,36.073,17.455
			c12.8,0,24.436-5.818,36.073-16.291c20.945-20.945,29.091-80.291,30.255-87.273C349.091,9.309,347.927,5.818,345.6,3.491z
			 M301.382,83.782c-12.8,12.8-25.6,12.8-38.4,0c-5.818-5.818-8.146-12.8-8.146-18.618c0-6.982,3.491-12.8,9.309-18.618
			c9.309-9.309,36.073-16.291,58.182-20.945C318.836,47.709,310.691,74.473,301.382,83.782z"/>
	</g>
</g>
<g>
	<g>
		<path d="M500.364,139.636h-11.636V93.091c0-6.982-4.655-11.636-11.636-11.636s-11.636,4.655-11.636,11.636v46.545h-69.818V93.091
			c0-6.982-4.655-11.636-11.636-11.636s-11.636,4.655-11.636,11.636v46.545h-11.636c-6.982,0-11.636,4.655-11.636,11.636v23.273
			c0,6.982,4.655,11.636,11.636,11.636s11.636-4.655,11.636-11.636v-11.636h116.364v23.273h-81.455
			c-6.982,0-11.636,4.655-11.636,11.636s4.655,11.636,11.636,11.636h69.818v11.636c0,25.6-20.945,46.545-46.545,46.545
			c-25.6,0-46.545-20.945-46.545-46.545c0-6.982-4.655-11.636-11.636-11.636s-11.636,4.655-11.636,11.636
			c0,34.909,25.6,62.836,58.182,68.655v164.073c0,19.782-15.127,34.909-34.909,34.909c-19.782,0-34.909-15.127-34.909-34.909V384
			c0-32.582-25.6-58.182-58.182-58.182c-32.582,0-58.182,25.6-58.182,58.182v69.818c0,19.782-15.127,34.909-34.909,34.909
			c-19.782,0-34.909-15.127-34.909-34.909V151.273c0-6.982-4.655-11.636-11.636-11.636c-6.982,0-11.636,4.655-11.636,11.636v80.291
			c-10.473-2.327-19.782-6.982-27.927-13.964c-12.8-11.636-18.618-30.255-18.618-52.364c0-34.909,36.073-98.909,58.182-132.655
			c22.109,33.745,58.182,97.745,58.182,132.655c0,24.436-6.982,43.055-19.782,54.691c-4.655,4.655-5.818,11.636-1.164,16.291
			s11.636,5.818,16.291,1.164c18.618-16.291,26.764-40.727,26.764-72.145c0-57.018-68.655-155.927-72.145-160.582
			c-4.655-5.818-15.127-5.818-18.618,0c-2.327,4.655-70.982,103.564-70.982,160.582c0,37.236,13.964,58.182,26.764,69.818
			c11.636,11.636,26.764,18.618,43.055,20.945v197.818c0,32.582,25.6,58.182,58.182,58.182C230.4,512,256,486.4,256,453.818V384
			c0-19.782,15.127-34.909,34.909-34.909c19.782,0,34.909,15.127,34.909,34.909v69.818C325.818,486.4,351.418,512,384,512
			c32.582,0,58.182-25.6,58.182-58.182V289.745c32.582-5.818,58.182-33.745,58.182-68.655v-11.636
			c6.982,0,11.636-4.655,11.636-11.636v-46.545C512,144.291,507.345,139.636,500.364,139.636z"/>
	</g>
</g>
</svg>