<?xml version="1.0" encoding="utf-8"?>
<svg height="800px" width="800px" version="1.1" id="_x32_" xmlns="http://www.w3.org/2000/svg" xmlns:xlink="http://www.w3.org/1999/xlink"
	 viewBox="0 0 512 512"  xml:space="preserve">
<style type="text/css">
	.st0{fill:#000000;}
</style>
<g>
	<path class="st0" d="M453.569,394.862c-13.365-20.109-33.65-31.264-52.708-38.462c-9.559-3.605-18.912-6.245-27.159-8.454
		c-8.225-2.202-15.406-4.013-20.262-5.739c-7.399-2.594-16.211-6.582-22.56-11.033c-3.176-2.194-5.703-4.511-7.17-6.46
		c-1.499-1.994-1.844-3.338-1.841-4.204c0-7.972,0-17.93,0-30.98c4.834-4.818,11.957-10.565,19.062-18.712
		c7.454-8.547,14.496-20.048,18.126-35.753c6.751-2.547,15.436-6.291,23.669-12.728c5.102-3.989,9.996-9.054,13.91-15.421
		c3.92-6.367,6.805-14.04,8.032-22.947c0.422-3.077,0.63-5.977,0.63-8.731c0.015-8.324-1.934-15.375-5.271-20.891
		c-5.018-8.332-12.658-12.598-18.889-14.638c-1.864-0.614-3.575-1.028-5.194-1.35c0-7.281,0-18.559,0-28.893
		c-0.038-15.659-3.483-42.458-20.578-66.272c-9.47-12.935-25.586-23.132-43.639-30.811C293.643,4.81,273.646,0.038,256,0
		c-17.666,0.038-37.678,4.818-55.777,12.414c-9.038,3.806-17.577,8.332-25.046,13.472c-7.465,5.14-13.89,10.871-18.605,17.401
		c-17.036,23.791-20.473,50.544-20.515,66.18c0,10.326,0,21.589,0,28.878c-3.434,0.683-7.515,1.91-11.738,4.212
		c-4.458,2.455-9.026,6.269-12.344,11.8c-3.334,5.516-5.283,12.559-5.267,20.883c0,2.754,0.206,5.662,0.629,8.731
		c1.224,8.907,4.113,16.58,8.029,22.947c5.884,9.574,13.926,16.119,21.643,20.684c5.708,3.376,11.294,5.723,15.935,7.481
		c3.633,15.689,10.679,27.19,18.125,35.729c7.101,8.155,14.229,13.902,19.066,18.72c0,13.05,0,23.008,0,30.98
		c0.004,0.866-0.342,2.21-1.842,4.204c-2.186,2.954-6.817,6.598-12.333,9.698c-5.509,3.131-11.85,5.847-17.401,7.795
		c-6.49,2.309-17.027,4.726-28.842,8.11c-17.75,5.132-38.772,12.536-55.911,27.228c-8.55,7.342-16.069,16.588-21.355,28.057
		c-5.298,11.47-8.321,25.088-8.313,41.001c0,3.69,0.161,7.51,0.491,11.454c0.253,2.862,1.338,5.17,2.593,7.058
		c2.405,3.53,5.554,6.108,9.486,8.762c6.874,4.557,16.357,8.976,28.491,13.318C121.51,500.146,181.576,511.978,256,512
		c60.468-0.008,111.51-7.849,147.953-17.707c18.237-4.949,32.806-10.358,43.348-15.782c5.286-2.731,9.567-5.424,12.989-8.409
		c1.703-1.503,3.214-3.084,4.488-4.987c1.258-1.887,2.348-4.196,2.594-7.05c0.33-3.951,0.491-7.772,0.491-11.462
		C467.893,425.39,462.453,408.234,453.569,394.862z M190.998,345.362c4.174-2.915,8.006-6.192,11.063-10.197
		c3.018-3.966,5.355-8.946,5.359-14.654c0-8.708,0-19.595,0-34.517v-3.322l-2.221-2.463c-6.556-7.182-14.351-12.889-21.061-20.707
		c-6.698-7.802-12.514-17.301-15.222-32.392l-0.874-4.949l-4.73-1.687c-6.778-2.402-15.835-5.808-23.378-11.746
		c-3.77-2.954-7.154-6.491-9.839-10.864c-2.682-4.374-4.71-9.606-5.635-16.258c-0.326-2.355-0.468-4.473-0.468-6.368
		c0.015-5.754,1.246-9.383,2.789-11.969c2.294-3.813,5.793-5.899,9.533-7.166c3.633-1.219,7.154-1.358,7.934-1.35l9.095,0.622
		v-9.254c0,0,0-19.641,0-36.657c-0.043-13.135,3.21-36.696,17.254-56.084c3.073-4.296,8.074-8.938,14.378-13.258
		c9.444-6.514,21.738-12.329,34.413-16.403c12.666-4.096,25.755-6.444,36.612-6.436c14.47-0.031,32.859,4.197,49.029,11.032
		c16.199,6.729,30.209,16.334,36.323,24.996c14.09,19.387,17.35,42.995,17.313,56.153c0,17.016,0,36.657,0,36.657v9.123l8.984-0.491
		h0.053c0.975-0.046,6.99,0.291,11.609,2.922c2.339,1.312,4.35,3.023,5.907,5.593c1.542,2.586,2.778,6.215,2.793,11.969
		c0,1.895-0.146,4.013-0.468,6.376c-0.921,6.644-2.954,11.876-5.632,16.25c-4.02,6.544-9.659,11.27-15.727,14.868
		c-6.054,3.591-12.398,5.93-17.493,7.742l-4.73,1.687l-0.871,4.949c-2.712,15.091-8.531,24.59-15.229,32.392
		c-6.71,7.818-14.508,13.526-21.06,20.715l-2.217,2.455v3.322c0,14.922,0,25.809,0,34.517c0.004,5.708,2.339,10.687,5.358,14.654
		c2.708,3.522,6.046,6.483,9.663,9.13c-0.863,2.034-2.09,4.335-3.828,6.867c-6.522,9.682-18.954,21.973-34.54,34.794
		c-7.174,5.906-15.069,11.952-23.331,18.006l0.479-1.681c-3.453-0.967-10.492-3.82-18.59-7.795
		c-12.21-5.976-27.217-14.592-38.833-23.614c-5.804-4.496-10.749-9.114-14.028-13.303c-2.179-2.746-3.464-5.218-4.123-7.25
		C185.623,348.79,188.393,347.165,190.998,345.362z M112.566,477.606c-17.366-4.688-31.026-9.851-39.957-14.455
		c-4.45-2.286-7.718-4.465-9.498-6.046c-0.682-0.59-1.066-1.028-1.292-1.312c-0.246-3.184-0.395-6.267-0.395-9.19
		c0.026-18.352,4.51-31.717,11.423-42.197c6.457-9.782,15.364-17.202,25.383-22.994c1.113,3.468,3.108,6.89,5.655,10.427
		c5.75,7.818,14.362,15.935,22.966,22.272c4.309,3.169,8.605,5.885,12.606,7.856c4.032,1.957,7.677,3.269,11.278,3.314
		c0.958-0.008,1.922-0.107,2.873-0.375c2.091-0.576,3.315-2.74,2.735-4.834c-0.575-2.086-2.742-3.314-4.83-2.73l-0.778,0.076
		c-1.922,0.085-6.464-1.496-11.405-4.442c-7.496-4.373-16.353-11.486-23.131-18.69c-3.395-3.59-6.276-7.212-8.225-10.426
		c-1.477-2.394-2.359-4.573-2.697-6.161c3.902-1.887,7.902-3.606,11.961-5.132c8.682-3.276,17.462-5.762,25.533-7.926
		c8.09-2.179,15.41-3.982,21.532-6.13c2.286-0.805,4.676-1.734,7.104-2.738c0.542,1.358,1.147,2.7,1.877,3.99
		c3.782,6.636,9.786,12.705,16.87,18.566c10.634,8.73,23.798,16.802,35.798,23.193c8.09,4.288,15.382,7.679,21.31,10.073
		c-15.778,11.079-32.592,21.989-48.983,31.878c-27.838,16.81-54.391,30.666-71.858,37.601
		C121.576,479.954,116.95,478.794,112.566,477.606z M450.186,455.81c-0.598,0.759-2.432,2.431-5.363,4.265
		c-5.317,3.376-14.002,7.427-25.334,11.378c-28.264,9.89-73.003,19.372-128.221,22.31c3.2-2.708,6.53-5.616,10.044-8.784
		c27.047-24.459,60.927-59.82,60.966-59.858c1.496-1.565,1.442-4.051-0.122-5.554c-1.565-1.496-4.05-1.45-5.554,0.122
		c-0.008,0.008-3.744,3.906-9.748,10.028c-8.999,9.191-23.062,23.338-37.049,36.642c-11.638,11.078-23.277,21.551-31.694,27.973
		c-7.223,0.238-14.573,0.383-22.11,0.383c-41.314,0.008-77.946-3.813-108.223-9.314c10.875-5.186,23.2-11.654,36.293-19.058
		c32.392-18.321,69.168-42.12,98.096-64.991c14.47-11.454,26.975-22.64,36.082-33.013c4.558-5.186,8.274-10.173,10.964-15.046
		c0.441-0.805,0.81-1.603,1.197-2.401c5.831,3.069,11.83,5.693,17.29,7.618c8.144,2.846,18.509,5.155,29.81,8.417
		c16.925,4.841,35.568,11.754,49.416,23.722c6.951,5.984,12.759,13.166,16.933,22.196c4.158,9.03,6.721,20.001,6.728,33.758
		C450.584,449.526,450.43,452.618,450.186,455.81z"/>
	<path class="st0" d="M234.199,191.366c0,8.324,0,15.743,0,22.794c-0.007,1.243,0.17,2.394,0.334,3.544l-22.676,24.736l5.793,5.309
		l19.867-21.666c0.966,1.541,2.045,2.969,3.341,4.126c4.044,3.661,9.28,5.402,14.455,5.402c5.174,0,10.41-1.741,14.454-5.402
		c1.17-1.05,2.175-2.301,3.081-3.667l19.437,21.206l5.793-5.309l-22.05-24.052c0.234-1.358,0.406-2.754,0.399-4.228h-7.857
		c-0.03,4.88-1.688,8.026-4.082,10.234c-2.401,2.186-5.758,3.368-9.175,3.36c-3.418,0.008-6.775-1.174-9.177-3.36
		c-2.394-2.209-4.05-5.354-4.081-10.234c0-10.649,0-22.157,0-36.366c1.418-4.143,2.355-8.502,2.355-13.12
		c0-0.598-0.15-1.15-0.177-1.734c2.839-1.534,7.02-2.731,11.766-2.693c4.745-0.038,8.93,1.158,11.769,2.693
		c-0.027,0.583-0.176,1.136-0.176,1.734c0.004,22.456,18.202,40.647,40.658,40.655c22.452-0.008,40.646-18.199,40.65-40.655
		c-0.004-22.463-18.202-40.654-40.65-40.654c-19.058,0-34.924,13.15-39.332,30.85c-3.782-1.55-8.151-2.447-12.919-2.478
		c-4.769,0.03-9.134,0.928-12.917,2.478c-4.407-17.699-20.273-30.85-39.326-30.85c-22.453,0-40.651,18.191-40.655,40.654
		c0.004,22.456,18.198,40.647,40.655,40.655C215.943,205.322,226.75,199.859,234.199,191.366z M308.251,136.587
		c15.505,0.031,28.053,12.574,28.084,28.087c-0.004,7.772-3.135,14.754-8.229,19.856c-5.102,5.094-12.084,8.225-19.855,8.232
		c-7.776-0.007-14.762-3.138-19.864-8.232c-5.094-5.102-8.224-12.084-8.228-19.856C280.19,149.162,292.738,136.618,308.251,136.587z
		 M203.757,192.762c-7.777-0.007-14.758-3.138-19.86-8.232c-5.094-5.102-8.224-12.084-8.228-19.856
		c0.03-15.513,12.578-28.056,28.088-28.087c15.509,0.031,28.057,12.574,28.087,28.087c-0.004,7.772-3.134,14.754-8.229,19.856
		C218.514,189.624,211.532,192.755,203.757,192.762z"/>
</g>
</svg>