<?xml version="1.0" encoding="utf-8"?>
<svg version="1.1" id="_x32_" xmlns="http://www.w3.org/2000/svg" xmlns:xlink="http://www.w3.org/1999/xlink"
	 viewBox="0 0 512 512"  xml:space="preserve">
<style type="text/css">
	.st0{fill:#000000;}
</style>
<g>
	<path class="st0" d="M380.952,104.852c-8.399-10.499-21.102-16.606-34.538-16.606h-39.592v30.626h18.803l14.916,18.689H171.441
		l14.917-18.689h18.82V88.246h-39.61c-13.436,0-26.139,6.107-34.538,16.606l-58.62,73.459h367.181L380.952,104.852z"/>
	<rect x="217.863" class="st0" width="76.256" height="124.996"/>
	<path class="st0" d="M249.753,317.466l-2.422,21.773h7.65h2.022h7.65l-2.422-21.773c4.513-2.292,7.615-6.909,7.615-12.303
		c0-7.659-6.203-13.862-13.853-13.862c-7.65,0-13.854,6.203-13.854,13.862C242.137,310.557,245.239,315.174,249.753,317.466z"/>
	<path class="st0" d="M265.61,210.348c13.958,4.156,24.152,17.043,24.152,32.352v17.007h-13.976V242.7
		c0-5.481-2.213-10.386-5.803-13.994c-1.289-1.289-2.77-2.396-4.374-3.302v3.416c0,5.307-4.304,9.611-9.619,9.611
		c-5.315,0-9.62-4.304-9.62-9.611v-3.416c-1.602,0.906-3.066,2.013-4.374,3.302c-3.59,3.607-5.803,8.513-5.803,13.994v17.007H222.22
		V242.7c0.018-15.309,10.194-28.196,24.152-32.352v-18.184H72.409v245.75c0,21.146,17.147,38.293,38.284,38.293h290.594
		c21.155,0,38.302-17.147,38.302-38.293v-245.75H265.61V210.348z M306.596,285.262v66.802c0,8.147-6.586,14.742-14.724,14.742
		h-71.744c-8.138,0-14.742-6.595-14.742-14.742v-66.802c0-8.129,6.604-14.734,14.742-14.734h71.744
		C300.009,270.529,306.596,277.134,306.596,285.262z"/>
	<rect x="106.459" y="485.442" class="st0" width="31.192" height="26.558"/>
	<rect x="374.348" y="485.442" class="st0" width="31.174" height="26.558"/>
</g>
</svg>