<?xml version="1.0" encoding="iso-8859-1"?>
<svg fill="#000000" height="800px" width="800px" version="1.1" id="Layer_1" xmlns="http://www.w3.org/2000/svg" xmlns:xlink="http://www.w3.org/1999/xlink"
	 viewBox="0 0 512.003 512.003" xml:space="preserve">
<g>
	<g>
		<path d="M298.73,128.309h-8.548c-4.427,0-8.014,3.588-8.014,8.014c0,4.426,3.587,8.014,8.014,8.014h8.548
			c4.427,0,8.014-3.588,8.014-8.014C306.744,131.898,303.157,128.309,298.73,128.309z"/>
	</g>
</g>
<g>
	<g>
		<path d="M350.02,171.051h-17.097c-4.427,0-8.014,3.588-8.014,8.014c0,4.426,3.587,8.014,8.014,8.014h17.097
			c4.427,0,8.014-3.588,8.014-8.014C358.034,174.639,354.447,171.051,350.02,171.051z"/>
	</g>
</g>
<g>
	<g>
		<path d="M307.278,222.342h-8.548c-4.427,0-8.014,3.588-8.014,8.014s3.587,8.014,8.014,8.014h8.548
			c4.427,0,8.014-3.588,8.014-8.014S311.705,222.342,307.278,222.342z"/>
	</g>
</g>
<g>
	<g>
		<path d="M439.233,383.748c-3.253-3.002-8.325-2.799-11.324,0.454l-58.131,62.977c-1.367,1.48-2.125,3.421-2.125,5.436v51.29
			c0,4.426,3.587,8.014,8.014,8.014s8.014-3.588,8.014-8.014v-48.158l56.006-60.674
			C442.689,391.821,442.486,386.749,439.233,383.748z"/>
	</g>
</g>
<g>
	<g>
		<path d="M510.191,221.256c-1.34-3.415-3.409-6.536-6.065-9.071c-5.014-4.784-11.587-7.235-18.535-6.911
			c-13.091,0.615-23.412,11.337-23.89,24.602l-3.462,15.479c-4.668-9.929-15.547-15.788-26.406-14.194
			C416.148,148.372,343.27,85.567,255.988,85.567c-39.092,0-76.229,12.377-107.4,35.792c-3.539,2.659-4.252,7.682-1.594,11.221
			c2.657,3.538,7.682,4.252,11.221,1.594c6.825-5.127,13.968-9.667,21.371-13.614v15.762c0,3.82,2.696,7.109,6.442,7.858
			l38.181,7.636l7.078,21.233c0.798,2.394,2.676,4.271,5.069,5.069l20.166,6.722v25.99l-15.75,23.627
			c-0.877,1.316-1.346,2.864-1.346,4.445v25.645c0,3.82,2.696,7.109,6.442,7.858l36.3,7.26v19.076c0,2.125,0.844,4.164,2.347,5.667
			l39.401,39.401c-8.383,12.303-16.406,23.959-22.256,32.197c-7.159,10.083-10.943,21.968-10.943,34.37v13.401
			c-22.694,4.919-46.745,4.921-69.456,0.003v-13.405c0-5.934-0.876-11.747-2.563-17.303l16.091-10.727
			c1.658-1.106,2.847-2.79,3.33-4.724l8.548-34.193c0.159-0.636,0.239-1.289,0.239-1.944v-42.742c0-3.449-2.208-6.512-5.48-7.603
			l-23.85-7.95l-23.746-23.745l-16.657-24.985c-1.486-2.229-3.988-3.569-6.668-3.569h-34.194c-3.036,0-5.811,1.715-7.168,4.43
			l-8.445,16.888l-2.018-6.055v-24.345c0-3.449-2.208-6.512-5.479-7.603l-10.948-3.649c6.569-18.714,16.535-36.214,29.554-51.522
			c2.868-3.371,2.459-8.43-0.913-11.297c-3.372-2.867-8.43-2.46-11.297,0.913c-20.18,23.725-33.687,52.242-39.439,82.539
			c-1.215-0.18-2.442-0.297-3.685-0.297c-10.223,0-19.032,6.144-22.946,14.93c-1.32-6.144-2.494-11.828-3.373-16.473
			c-2.706-14.286-11.813-23.511-23.768-24.074c-6.927-0.329-13.519,2.129-18.535,6.912c-2.654,2.532-4.73,5.655-6.062,9.073
			c-1.258,3.23-2.309,7.442-1.512,10.9l25.645,111.129c0.313,1.358,0.976,2.609,1.92,3.633L128.298,455.75v48.156
			c0,4.426,3.588,8.014,8.014,8.014s8.014-3.588,8.014-8.014v-51.29c0-2.014-0.759-3.956-2.125-5.436L41.062,337.611l-24.93-108.029
			c0.401-4.817,4.686-8.526,9.5-8.298c6.255,0.295,8.297,8.529,8.773,11.046c4.613,24.36,16.667,74.699,17.178,76.83
			c0.403,1.679,1.337,3.183,2.663,4.288l51.29,42.742c1.44,1.2,3.256,1.857,5.13,1.857h25.645c5.927,0,9.864-6.523,7.079-11.77
			c-0.139-0.262-13.956-26.304-20.701-39.241c-5.526-10.6-2.457-13.625-1.3-14.763c3.413-3.363,8.838-3.469,12.377-0.346
			c4.896,7.33,44.955,67.263,63.482,93.36c5.223,7.357,7.984,16.032,7.984,25.091v93.527c0,4.426,3.588,8.014,8.014,8.014
			s8.014-3.588,8.014-8.014v-63.761c11.39,2.239,23.036,3.388,34.728,3.388c11.691,0,23.341-1.144,34.728-3.382v63.755
			c0,4.426,3.587,8.014,8.014,8.014s8.014-3.588,8.014-8.014v-93.527c0-9.058,2.761-17.734,7.984-25.091
			c18.528-26.097,58.586-86.029,63.482-93.36c3.541-3.123,8.964-3.018,12.377,0.345c1.075,1.059,4.346,4.282-1.249,14.668
			c-4.8,8.909-20.611,39.069-20.77,39.372c-2.749,5.244,1.187,11.735,7.098,11.735h25.645c1.875,0,3.69-0.657,5.131-1.857
			l51.29-42.742c1.384-1.149,2.352-2.791,2.722-4.547l17.066-76.314c0.128-0.574,0.193-1.16,0.193-1.749
			c0-5.045,3.872-9.331,8.633-9.555c4.814-0.231,9.1,3.484,9.5,8.298l-24.929,108.029l-15.313,16.589
			c-3.003,3.252-2.8,8.323,0.453,11.324c3.253,3.002,8.321,2.799,11.324-0.453l16.756-18.151c0.946-1.024,1.607-2.276,1.92-3.633
			l25.645-111.129C512.536,228.556,511.506,224.616,510.191,221.256z M122.997,342.019h-9.429l-46.177-38.482v-47.536
			c0-5.008,4.074-9.083,9.083-9.083c0.475,0,0.943,0.045,1.405,0.116c-0.571,5.801-0.871,11.644-0.871,17.515
			c0,15.133,1.893,30.17,5.628,44.695c1.119,4.353,5.75,6.953,10.054,5.684c4.075-1.202,6.526-5.569,5.47-9.675
			c-3.399-13.221-5.123-26.916-5.123-40.703c0-13.098,1.587-26.061,4.651-38.621l4.966,1.655v19.869
			c0,0.861,0.139,1.717,0.411,2.535l8.548,25.645c0.34,1.02,0.887,1.926,1.565,2.707c-1.057,0.757-2.081,1.575-3.036,2.515
			c-5.781,5.694-10.761,16.144-1.664,33.592C112.307,321.793,118.401,333.333,122.997,342.019z M211.89,378.348
			c-0.506-0.79-64.842-95.393-65.281-96.052c-0.282-0.422-0.602-0.815-0.957-1.177c-4.872-4.945-11.304-7.439-17.752-7.474
			l13.364-26.729h24.952l14.717,22.076c0.293,0.439,0.628,0.848,1.001,1.221l25.645,25.645c0.879,0.879,1.952,1.543,3.133,1.936
			l20.166,6.722v35.979l-7.558,30.231L211.89,378.348z M350.554,264.549v37.399c0,0.71,0.102,1.393,0.275,2.048
			c-5.223,7.773-11.397,16.94-17.745,26.313l-34.887-34.886v-22.326c0-3.82-2.696-7.109-6.442-7.858l-36.3-7.26v-16.649
			l15.75-23.627c0.877-1.316,1.346-2.864,1.346-4.445v-34.194c0-3.449-2.207-6.512-5.48-7.603l-21.844-7.281l-7.281-21.843
			c-0.909-2.728-3.211-4.76-6.032-5.325l-36.3-7.26v-16.226c0-0.139-0.014-0.274-0.02-0.41
			c19.011-7.595,39.391-11.522,60.393-11.522c76.545,0,140.922,53.057,158.315,124.322c-0.39,0.513-0.731,1.074-0.996,1.693
			l-8.732,20.376h-20.361c-0.861,0-1.717,0.139-2.535,0.411l-25.645,8.548C352.76,258.037,350.554,261.1,350.554,264.549z
			 M444.588,303.538l-46.179,38.481h-9.484c5.014-9.54,11.705-22.242,14.525-27.477c9.83-18.245,3.209-28.938-1.612-33.688
			c-9.78-9.635-25.517-9.585-35.254,0.03v-10.558l18.932-6.311h24.345c3.206,0,6.104-1.911,7.367-4.858l1.475-3.442
			c0.157,2.926,0.242,5.87,0.242,8.834c0,12.629-1.448,25.206-4.306,37.381c-1.011,4.309,1.663,8.622,5.971,9.634
			c4.253,0.998,8.636-1.72,9.634-5.971c3.139-13.374,4.73-27.183,4.73-41.044c0-5.911-0.296-11.753-0.858-17.519
			c0.458-0.069,0.922-0.112,1.392-0.112c5.008,0,9.083,4.074,9.083,9.083V303.538z"/>
	</g>
</g>
<g>
	<g>
		<path d="M470.933,78.852c-4.329-1.793-14.797-4.478-26.879,4.209c-12.082-8.687-22.551-6.002-26.879-4.209
			c-9.311,3.857-15.328,12.995-15.328,23.278c-0.001,30.251,37.045,49.121,38.623,49.91c2.236,1.118,4.932,1.118,7.169,0
			c1.577-0.789,38.624-19.659,38.624-49.91C486.261,91.845,480.244,82.709,470.933,78.852z M444.101,135.682
			c-7.888-4.8-26.229-17.673-26.229-33.552c0.001-3.72,2.185-7.124,5.435-8.47c1.007-0.418,2.082-0.622,3.208-0.622
			c3.642,0,7.809,2.148,11.87,6.21c3.131,3.13,8.204,3.13,11.334,0c5.317-5.318,10.812-7.355,15.078-5.589
			c3.249,1.346,5.434,4.75,5.434,8.47C470.231,116.906,453.752,129.884,444.101,135.682z"/>
	</g>
</g>
<g>
	<g>
		<path d="M94.803,78.852c-4.329-1.793-14.796-4.478-26.879,4.209c-12.083-8.687-22.551-6.002-26.879-4.209
			c-9.311,3.857-15.328,12.995-15.328,23.278c0,30.251,37.047,49.121,38.624,49.91c2.237,1.118,4.931,1.118,7.168,0
			c1.577-0.789,38.624-19.659,38.624-49.91C110.131,91.845,104.114,82.709,94.803,78.852z M67.972,135.682
			c-7.888-4.8-26.229-17.673-26.229-33.552c0.001-3.72,2.185-7.124,5.436-8.47c1.007-0.418,2.081-0.622,3.207-0.622
			c3.642,0,7.809,2.148,11.872,6.21c3.13,3.13,8.204,3.13,11.333,0c5.319-5.318,10.817-7.353,15.078-5.589
			c3.25,1.346,5.434,4.75,5.434,8.47C94.102,116.906,77.624,129.884,67.972,135.682z"/>
	</g>
</g>
<g>
	<g>
		<path d="M282.867,1.93c-4.328-1.793-14.797-4.477-26.879,4.209c-12.082-8.687-22.552-6.002-26.879-4.209
			c-9.311,3.857-15.328,12.995-15.328,23.278c0,30.25,37.047,49.121,38.624,49.91c2.237,1.118,4.932,1.118,7.168,0
			c1.577-0.789,38.624-19.659,38.624-49.91C298.196,14.924,292.179,5.788,282.867,1.93z M256.037,58.761
			c-7.888-4.8-26.229-17.673-26.229-33.552c0-3.721,2.184-7.124,5.435-8.47c1.007-0.418,2.082-0.622,3.207-0.622
			c3.642,0,7.809,2.148,11.872,6.21c3.129,3.129,8.202,3.13,11.334,0c5.317-5.318,10.812-7.355,15.078-5.589
			c3.249,1.346,5.434,4.75,5.434,8.47C282.168,39.984,265.688,52.963,256.037,58.761z"/>
	</g>
</g>
</svg>