<?xml version="1.0" encoding="iso-8859-1"?>
<svg fill="#000000" height="800px" width="800px" version="1.1" id="Capa_1" xmlns="http://www.w3.org/2000/svg" xmlns:xlink="http://www.w3.org/1999/xlink"
	 viewBox="0 0 121.669 121.669" xml:space="preserve">
<g>
	<path d="M60.835,121.669c-33.544,0-60.834-27.29-60.834-60.835C0.001,27.29,27.291,0,60.835,0s60.834,27.29,60.834,60.834
		C121.669,94.379,94.379,121.669,60.835,121.669z M60.835,6C30.6,6,6.001,30.599,6.001,60.834c0,30.236,24.599,54.835,54.834,54.835
		s54.834-24.599,54.834-54.835C115.669,30.599,91.071,6,60.835,6z"/>
	<circle cx="26.829" cy="60.835" r="8.364"/>
	<circle cx="94.842" cy="60.835" r="8.364"/>
	<path d="M60.636,100.436c-10.04,0-18.208-7.281-18.208-16.231h6c0,5.642,5.477,10.231,12.208,10.231s12.208-4.59,12.208-10.231h6
		C78.844,93.154,70.676,100.436,60.636,100.436z"/>
</g>
</svg>