<?xml version="1.0" encoding="iso-8859-1"?>
<svg fill="#000000" height="800px" width="800px" version="1.1" id="Layer_1" xmlns="http://www.w3.org/2000/svg" xmlns:xlink="http://www.w3.org/1999/xlink"
	 viewBox="0 0 512 512" xml:space="preserve">
<g>
	<g>
		<path d="M294.078,212.118c-6.439,0-11.679,5.239-11.679,11.679c0,6.439,5.24,11.678,11.679,11.678
			c6.439,0,11.678-5.239,11.678-11.678C305.756,217.356,300.517,212.118,294.078,212.118z"/>
	</g>
</g>
<g>
	<g>
		<path d="M217.871,212.118c-6.439,0-11.678,5.239-11.678,11.679c0,6.439,5.239,11.678,11.678,11.678
			c6.439,0,11.679-5.239,11.679-11.678C229.549,217.356,224.31,212.118,217.871,212.118z"/>
	</g>
</g>
<g>
	<g>
		<path d="M266.227,261.344h-20.418c-5.769,0-10.448,4.678-10.448,10.448c0,11.39,9.267,20.658,20.658,20.658
			c11.39,0,20.657-9.267,20.657-20.658C276.675,266.022,271.996,261.344,266.227,261.344z"/>
	</g>
</g>
<g>
	<g>
		<path d="M10.585,491.077h-0.137C4.679,491.077,0,495.755,0,501.525s4.679,10.448,10.448,10.448h0.137
			c5.769,0,10.448-4.678,10.448-10.448S16.354,491.077,10.585,491.077z"/>
	</g>
</g>
<g>
	<g>
		<path d="M501.501,491.077h-0.137c-5.769,0-10.448,4.678-10.448,10.448s4.679,10.448,10.448,10.448h0.137
			c5.769,0,10.448-4.678,10.448-10.448S507.27,491.077,501.501,491.077z"/>
	</g>
</g>
<g>
	<g>
		<path d="M384.179,15.693h-5.22v-5.22c0-5.77-4.679-10.448-10.448-10.448s-10.448,4.678-10.448,10.448v5.22h-5.22
			c-5.769,0-10.448,4.678-10.448,10.448s4.677,10.448,10.448,10.448h5.22v5.221c0,5.77,4.679,10.448,10.448,10.448
			s10.448-4.678,10.448-10.448v-5.221h5.22c5.769,0,10.448-4.678,10.448-10.448S389.948,15.693,384.179,15.693z"/>
	</g>
</g>
<g>
	<g>
		<path d="M41.921,336.454h-5.22v-5.22c0-5.77-4.679-10.448-10.448-10.448s-10.448,4.678-10.448,10.448v5.22h-5.221
			c-5.769,0-10.448,4.678-10.448,10.448s4.679,10.448,10.448,10.448h5.221v5.221c0,5.77,4.679,10.448,10.448,10.448
			s10.448-4.677,10.448-10.448v-5.221h5.22c5.769,0,10.448-4.678,10.448-10.448S47.691,336.454,41.921,336.454z"/>
	</g>
</g>
<g>
	<g>
		<path d="M472.294,399.86h-5.22v-5.22c0-5.77-4.679-10.448-10.448-10.448s-10.448,4.678-10.448,10.448v5.22h-5.22
			c-5.769,0-10.448,4.678-10.448,10.448s4.679,10.448,10.448,10.448h5.22v5.221c0,5.77,4.679,10.448,10.448,10.448
			s10.448-4.677,10.448-10.448v-5.221h5.22c5.769,0,10.448-4.678,10.448-10.448S478.063,399.86,472.294,399.86z"/>
	</g>
</g>
<g>
	<g>
		<path d="M501.552,214.785h-5.22v-5.221c0-5.77-4.679-10.448-10.448-10.448s-10.448,4.678-10.448,10.448v5.221h-5.22
			c-5.769,0-10.448,4.678-10.448,10.448s4.679,10.448,10.448,10.448h5.22v5.22c0,5.77,4.679,10.448,10.448,10.448
			s10.448-4.678,10.448-10.448v-5.22h5.22c5.769,0,10.448-4.678,10.448-10.448S507.321,214.785,501.552,214.785z"/>
	</g>
</g>
<g>
	<g>
		<path d="M293.024,176.95h-72.549c-28.246,0-51.226,22.98-51.226,51.226v47.51c0,28.247,22.98,51.226,51.226,51.226h72.549
			c28.246,0,51.226-22.98,51.226-51.226v-47.51C344.25,199.93,321.27,176.95,293.024,176.95z M323.353,275.686
			c0,16.724-13.605,30.33-30.33,30.33h-72.549c-16.723,0-30.33-13.606-30.33-30.33v-47.51c0-16.724,13.606-30.33,30.33-30.33h72.549
			c16.725,0,30.33,13.606,30.33,30.33V275.686z"/>
	</g>
</g>
<g>
	<g>
		<path d="M467.562,491.077h-57.964v-70.644c0-20.366-12.291-39.709-29.887-47.042l-28.898-12.04
			c23.647-9.996,40.284-33.426,40.284-60.67v-5.841c12.265-3.781,21.083-14.016,21.083-26.024v-39.594
			c0-12.524-9.59-23.117-22.68-26.474c-4.055-27.855-15.758-52.773-33.963-71.671c-22.43-23.284-53.085-36.108-86.318-36.108
			h-26.383c-33.234,0-63.888,12.823-86.318,36.108c-1.21,1.256-2.386,2.542-3.538,3.85l-28.664-61.116
			c-0.006-0.053-0.011-0.107-0.018-0.161C121.021,47.599,106.7,23.038,83.971,4.492c-3.83-3.125-9.325-3.138-13.169-0.033
			C47.205,23.513,33.526,48.257,30.38,73.888L1.04,136.449c-1.518,3.236-1.276,7.023,0.642,10.04
			c1.917,3.016,5.244,4.844,8.817,4.844h40.423c-0.873,13.28,4.015,26.653,13.838,36.067c0.047,0.045,0.095,0.09,0.143,0.134
			l5.824,5.375c2.001,1.847,4.544,2.771,7.086,2.771c2.542,0,5.085-0.924,7.086-2.771l5.824-5.375
			c0.103-0.094,0.203-0.191,0.302-0.289c9.744-9.745,14.538-22.863,13.688-35.913h36.154c-9.348,15.174-15.579,32.622-18.314,51.416
			c-13.09,3.356-22.68,13.95-22.68,26.474v39.594c0,12.008,8.817,22.243,21.083,26.024v5.841c0,27.225,16.612,50.642,40.232,60.65
			l-28.948,12.062c-17.597,7.332-29.887,26.677-29.887,47.041v70.644H44.385c-5.769,0-10.448,4.678-10.448,10.448
			s4.679,10.448,10.448,10.448h423.176c5.769,0,10.448-4.678,10.448-10.448S473.331,491.077,467.562,491.077z M26.939,130.438
			l7.404-15.79c1.74,5.354,3.966,10.632,6.691,15.79H26.939z M77.781,170.812c-4.664-5.322-6.768-12.485-5.9-19.478h11.887
			C84.644,158.237,82.546,165.214,77.781,170.812z M89.192,130.438H65.538C53.781,113.985,49.004,95.64,50.862,77.744h29.291
			c5.769,0,10.448-4.678,10.448-10.448s-4.679-10.448-10.448-10.448H56.161c4.474-10.864,11.556-21.178,21.171-30.345
			C108.055,56.065,112.895,97.229,89.192,130.438z M113.675,130.438c2.704-5.139,4.938-10.436,6.688-15.842l7.43,15.842H113.675z
			 M141.852,300.682v-75.699c0-63.226,42.469-109.116,100.982-109.116h26.383c58.514,0,100.982,45.889,100.982,109.116v75.699
			c0,24.777-20.158,44.936-44.936,44.936H186.786C162.009,345.616,141.852,325.459,141.852,300.682z M245.578,491.077H123.247
			v-70.644c0-8.692,3.994-17.457,9.987-23.085c19.655,23.612,62.67,39.591,112.344,41.568V491.077z M152.623,387.536l50.458-21.024
			h105.786l50.529,21.054c-16.847,16.238-54.426,30.668-103.372,30.668C207.04,418.233,169.454,403.79,152.623,387.536z
			 M388.703,491.077h-0.001H266.474v-52.16c49.627-1.976,92.624-17.933,112.299-41.514c5.961,5.629,9.931,14.366,9.931,23.03
			V491.077z"/>
	</g>
</g>
<g>
	<g>
		<path d="M77.366,199.116c-5.769,0-10.448,4.678-10.448,10.448v27.977c0,5.77,4.679,10.448,10.448,10.448
			s10.448-4.678,10.448-10.448v-27.977C87.814,203.794,83.135,199.116,77.366,199.116z"/>
	</g>
</g>
<g>
	<g>
		<path d="M44.32,172.464c-5.769,0-10.448,4.678-10.448,10.448v27.976c0,5.771,4.678,10.449,10.448,10.449
			c5.769,0,10.448-4.678,10.448-10.448v-27.977C54.768,177.141,50.089,172.464,44.32,172.464z"/>
	</g>
</g>
<g>
	<g>
		<path d="M110.412,172.464c-5.769,0-10.448,4.678-10.448,10.448v8.31c0,5.77,4.679,10.448,10.448,10.448
			s10.448-4.678,10.448-10.448v-8.31C120.86,177.141,116.181,172.464,110.412,172.464z"/>
	</g>
</g>
<g>
	<g>
		<path d="M196.744,153.253c-4.02-4.139-10.636-4.237-14.774-0.215l-0.394,0.389c-4.068,4.092-4.049,10.707,0.043,14.775
			c2.038,2.027,4.703,3.039,7.367,3.039c2.683,0,5.368-1.028,7.41-3.082l0.133-0.132
			C200.667,164.007,200.764,157.392,196.744,153.253z"/>
	</g>
</g>
<g>
	<g>
		<path d="M330.422,153.374c-17.033-16.891-39.974-26.194-64.595-26.194h-19.602c-12.65,0-24.813,2.412-36.149,7.169
			c-5.32,2.233-7.823,8.356-5.591,13.676c2.233,5.322,8.358,7.826,13.678,5.592c8.762-3.677,18.202-5.542,28.061-5.542h19.602
			c19.074,0,36.788,7.151,49.883,20.135c2.037,2.021,4.696,3.029,7.356,3.029c2.687,0,5.376-1.031,7.419-3.09
			C334.548,164.052,334.52,157.437,330.422,153.374z"/>
	</g>
</g>
</svg>