<?xml version="1.0" encoding="utf-8"?>
<svg version="1.1" id="Ebene_1" xmlns="http://www.w3.org/2000/svg" xmlns:xlink="http://www.w3.org/1999/xlink" x="0px" y="0px"
	 viewBox="0 0 532.4 561.5" style="enable-background:new 0 0 532.4 561.5;" xml:space="preserve">
<g>
	<path d="M517.8,257.4c-1.6,6.1-2.6,12.4-4.8,18.3c-6.4,17.5-18.9,29.8-34.4,39.5c-15.6,9.7-32.5,16.9-49.3,24.2
		c-15.8,6.9-31.9,13.4-46.4,22.8c-7.2,4.7-13.9,9.9-17.6,17.9c-1.2,2.6-1.7,5.6-2.7,8.9c44.7,0,88.7,0,133.6,0
		c-1.8,4.1-3.1,8-5,11.4c-3.9,6.7-7.7,13.4-12.3,19.6c-8.6,11.4-20.2,17-34.6,16.6c-12.9-0.4-25.9-0.9-38.8-0.8
		c-7.4,0.1-14.8,1-22.1,2.2c-10.6,1.8-19.5,7-26.2,15.5c-7.7,9.9-15.2,19.9-22.8,29.8c-12.7,16.4-26.7,31.3-44.8,41.9
		c-17.2,10.1-35.8,14.9-55.7,15.4c-34.5,0.8-62.7-12.9-87-36.2c-17.5-16.8-30.3-36.9-41.3-58.4c-11.1-21.7-24.3-42-41.6-59.4
		c-15.2-15.3-32.7-26.9-54-31.8c-0.4-0.1-0.7-0.3-1.3-0.5c3.9-8.4,9.1-15.7,15.4-22.1C42,314,63.6,306.5,88.9,310.3
		c14,2.1,25.8,9.3,36.5,18.3c14,11.7,25.3,25.9,36.6,40.1c10.2,12.8,20.1,26,32.2,37.2c8.5,7.9,17.8,14.5,29.7,16.1
		c12.2,1.6,27.1-2.3,32.8-15.8c4.6-11,3.2-21.5-3.5-31.4c-7.6-11.1-18-19.1-28.9-26.4c-10-6.7-19.9-13.4-27.5-22.9
		c-12.8-15.9-17.6-34.2-13.7-54c3.5-17.9,8.8-35.5,13.6-53.2c10.2-37.2,20.6-74.2,30.9-111.4c8.9-32.1,17.8-64.3,26.8-96.4
		c0.4,0,0.8,0,1.3,0c0.9,0.7,1.8,1.4,2.8,2c11.4,7.3,21.4,16,29.2,27c13.9,19.3,19.5,40.6,13.2,64c-3.9,14.5-8.5,28.8-13.3,43.1
		c-8.5,25.4-18.2,50.4-24.6,76.5c-2.8,11.5-5.2,23.2-4.6,35.2c0.3,6.1,1.4,12.1,5.5,17.6c53.3-66.4,106.3-132.4,159.4-198.6
		c0.7,0.8,1.1,1.2,1.5,1.7c9.2,12.6,16.3,26.2,20.1,41.5c4.4,17.9,2.5,35-8.1,50.4c-5.4,7.8-10.7,15.9-17,23
		c-18.6,20.7-37.7,41-56.7,61.5c-12.3,13.3-24.8,26.4-34.7,41.8c-5.4,8.4-9.4,17.3-8.5,27.7c0.2,1.8,0.8,3.6,1.2,5.8
		c64.8-35.5,129-70.6,193.7-106.1c1.1,5.2,2,9.8,3,14.4C517.8,245.1,517.8,251.3,517.8,257.4z"/>
</g>
</svg>
