<?xml version="1.0" encoding="iso-8859-1"?>
<svg fill="#000000" height="800px" width="800px" version="1.1" id="Layer_1" xmlns="http://www.w3.org/2000/svg" xmlns:xlink="http://www.w3.org/1999/xlink"
	 viewBox="0 0 512 512" xml:space="preserve">
<g>
	<g>
		<g>
			<circle cx="457.939" cy="96.206" r="7.938"/>
			<circle cx="115.946" cy="242.228" r="7.938"/>
			<path d="M451.528,46.658c-3.052-3.308-7.377-5.257-11.864-5.348c-4.549-0.083-8.784,1.622-11.985,4.824L385.274,88.54
				c-42.547-39.762-97.711-61.578-156.235-61.578c-61.178,0-118.694,23.824-161.955,67.084C23.824,137.306,0,194.822,0,256
				c0,61.353,23.777,118.918,66.949,162.09c43.174,43.173,100.738,66.948,162.09,66.948c59.563,0,115.985-22.75,158.872-64.059
				c42.769-41.196,67.622-96.494,69.981-155.707c0.179-4.485-1.501-8.912-4.606-12.144c-3.139-3.266-7.361-5.065-11.89-5.065
				H248.201l38.219-38.219h33.705v17.383c0,10.606,8.629,19.234,19.234,19.234s19.234-8.629,19.234-19.234v-17.383h8.132v8.916
				c0,10.606,8.629,19.234,19.234,19.234s19.234-8.629,19.234-19.234v-8.916h90.295c4.532,0,8.758-1.8,11.9-5.069
				c3.101-3.226,4.777-7.642,4.6-12.115C509.833,138.443,488.361,86.592,451.528,46.658z M387.714,108.55
				c3.13,7.552,1.636,16.585-4.495,22.716c-6.131,6.131-15.164,7.624-22.716,4.496L387.714,108.55z M441.395,263.938
				c0.071,0,0.261,0,0.443,0.189c0.134,0.14,0.198,0.312,0.189,0.512c-2.195,55.102-25.326,106.564-65.131,144.905
				c-39.914,38.445-92.424,59.618-147.859,59.618c-57.112,0-110.69-22.124-150.865-62.299C38.001,366.69,15.875,313.112,15.875,256
				c0-117.539,95.625-213.162,213.163-213.162c54.282,0,105.472,20.156,145.014,56.924l-18.501,18.501
				c-34.597-31.841-79.212-49.293-126.514-49.293c-57.928,0-109.787,26.473-144.121,67.955c-1.44-1.472-3.447-2.388-5.669-2.388
				c-4.384,0-7.938,3.554-7.938,7.938c0,2.998,1.664,5.607,4.118,6.957C54.371,179.689,42.005,216.425,42.005,256
				c0,85.723,57.973,158.153,136.771,180.163c0.524,3.877,3.838,6.869,7.857,6.869c2.723,0,5.123-1.373,6.553-3.462
				c11.608,2.263,23.591,3.462,35.85,3.462c100.47,0,182.677-79.633,186.851-179.094H441.395z M325.933,263.938
				c-0.264,0.789-0.412,1.632-0.412,2.509c0,4.384,3.554,7.938,7.938,7.938c4.384,0,7.938-3.554,7.938-7.938
				c0-0.878-0.148-1.72-0.412-2.509h15.935c-3.127,7.553-10.571,12.884-19.242,12.884c-8.671,0-16.114-5.331-19.242-12.884H325.933z
				 M277.705,170.637c0,7.098,2.011,13.885,5.749,19.723l-5.934,5.934l-54.094,54.094c-2.27,2.27-2.95,5.684-1.721,8.65
				c1.229,2.966,4.122,4.9,7.333,4.9h72.818c3.639,16.431,18.313,28.759,35.823,28.759s32.184-12.33,35.822-28.759h26.503
				c-4.161,90.706-79.251,163.22-170.967,163.22c-94.376,0-171.157-76.78-171.157-171.157S134.662,84.844,229.038,84.844
				c43.062,0,83.692,15.801,115.282,44.649l-10.2,10.2c-14.191-9.046-33.286-7.386-45.667,4.994
				C281.522,151.619,277.705,160.835,277.705,170.637z M293.58,170.637c0-5.562,2.165-10.791,6.098-14.724
				c6.131-6.131,15.164-7.624,22.717-4.495l-27.225,27.225C294.128,176.139,293.58,173.43,293.58,170.637z M342.718,227.227
				c0,1.852-1.507,3.359-3.359,3.359c-1.852,0-3.359-1.507-3.359-3.359v-17.383h6.718V227.227z M389.318,218.76
				c0,1.852-1.507,3.359-3.359,3.359c-1.852,0-3.359-1.507-3.359-3.359v-8.917h6.718V218.76z M372.532,193.969
				c3.127-7.553,10.571-12.884,19.242-12.884c8.671,0,16.114,5.331,19.242,12.884H372.532z M427.596,193.969
				c-3.639-16.431-18.313-28.759-35.822-28.759s-32.184,12.33-35.823,28.759h-53.655l46.483-46.483
				c5.99,3.818,12.852,5.736,19.717,5.736c9.397,0,18.795-3.577,25.949-10.732c12.38-12.38,14.04-31.476,4.994-45.666l10.2-10.2
				c27.07,29.642,42.645,67.243,44.464,107.345H427.596z M495.941,193.774c-0.186,0.195-0.387,0.195-0.453,0.195h-25.501
				c-1.839-44.341-19.063-85.922-49.116-118.577l18.033-18.033c0.05-0.05,0.158-0.184,0.44-0.177
				c0.198,0.004,0.371,0.085,0.514,0.239c34.279,37.164,54.261,85.417,56.265,135.869
				C496.127,193.36,496.136,193.573,495.941,193.774z"/>
			<path d="M134.651,206.698c20.235,0,36.697-16.462,36.697-36.697c0-20.235-16.462-36.697-36.697-36.697
				c-20.235,0-36.697,16.462-36.697,36.697C97.954,190.236,114.416,206.698,134.651,206.698z M134.651,149.179
				c11.482,0,20.822,9.341,20.822,20.822c0,11.482-9.341,20.822-20.822,20.822c-11.482,0-20.822-9.341-20.822-20.822
				C113.829,158.519,123.169,149.179,134.651,149.179z"/>
			<circle cx="194.572" cy="55.682" r="7.938"/>
			<circle cx="342.97" cy="90.664" r="7.938"/>
			<circle cx="47.827" cy="345.577" r="7.938"/>
			<circle cx="415.012" cy="331.852" r="7.938"/>
			<circle cx="325.521" cy="431.92" r="7.938"/>
			<path d="M249.931,97.839c-20.235,0-36.697,16.462-36.697,36.697c0,20.235,16.462,36.697,36.697,36.697
				c20.235,0,36.697-16.462,36.697-36.697C286.628,114.301,270.165,97.839,249.931,97.839z M249.931,155.358
				c-11.482,0-20.822-9.341-20.822-20.822c0-11.482,9.341-20.822,20.822-20.822c11.482,0,20.822,9.341,20.822,20.822
				C270.753,146.017,261.412,155.358,249.931,155.358z"/>
			<path d="M184.474,305.237c0,20.235,16.462,36.697,36.697,36.697c20.234,0,36.697-16.462,36.697-36.697
				c0-20.235-16.462-36.697-36.697-36.697C200.936,268.54,184.474,285.002,184.474,305.237z M221.171,284.414
				c11.482,0,20.822,9.341,20.822,20.822c0,11.482-9.341,20.822-20.822,20.822c-11.482,0-20.822-9.341-20.822-20.822
				S209.69,284.414,221.171,284.414z"/>
			<circle cx="222.954" cy="309.957" r="7.938"/>
			<circle cx="248.522" cy="142.474" r="7.938"/>
			<path d="M206.348,168.834c-20.235,0-36.697,16.462-36.697,36.697c0,20.234,16.462,36.697,36.697,36.697
				c20.234,0,36.697-16.462,36.697-36.697C243.044,185.296,226.582,168.834,206.348,168.834z M206.348,226.353
				c-11.482,0-20.822-9.341-20.822-20.822c0-11.481,9.341-20.822,20.822-20.822c11.482,0,20.822,9.341,20.822,20.822
				C227.169,217.012,217.829,226.353,206.348,226.353z"/>
			<path d="M197.9,383.232c0,20.235,16.462,36.697,36.697,36.697c20.235,0,36.697-16.462,36.697-36.697
				c0-20.235-16.462-36.697-36.697-36.697C214.361,346.535,197.9,362.997,197.9,383.232z M255.418,383.232
				c0,11.482-9.341,20.822-20.822,20.822c-11.482,0-20.822-9.341-20.822-20.822c0-11.482,9.341-20.822,20.822-20.822
				C246.079,362.41,255.418,371.75,255.418,383.232z"/>
			<path d="M144.705,245.471c0-20.235-16.462-36.697-36.697-36.697c-20.235,0-36.697,16.462-36.697,36.697
				c0,20.234,16.462,36.697,36.697,36.697C128.243,282.167,144.705,265.706,144.705,245.471z M87.186,245.471
				c0-11.482,9.341-20.822,20.822-20.822c11.482,0,20.822,9.341,20.822,20.822c0,11.482-9.341,20.822-20.822,20.822
				C96.526,266.292,87.186,256.953,87.186,245.471z"/>
			<circle cx="131.937" cy="331.852" r="7.938"/>
			<path d="M136.768,297.299c-20.235,0-36.697,16.462-36.697,36.697s16.462,36.697,36.697,36.697
				c20.235,0,36.697-16.462,36.697-36.697C173.464,313.761,157.003,297.299,136.768,297.299z M136.768,354.818
				c-11.482,0-20.822-9.341-20.822-20.822c0-11.482,9.341-20.822,20.822-20.822c11.482,0,20.822,9.341,20.822,20.822
				S148.249,354.818,136.768,354.818z"/>
			<circle cx="320.125" cy="328.644" r="7.938"/>
			<path d="M325.521,370.693c20.235,0,36.697-16.462,36.697-36.697c0-20.235-16.462-36.697-36.697-36.697
				c-20.235,0-36.697,16.462-36.697,36.697S305.286,370.693,325.521,370.693z M325.521,313.174c11.482,0,20.822,9.341,20.822,20.822
				s-9.341,20.822-20.822,20.822c-11.482,0-20.822-9.341-20.822-20.822C304.7,322.514,314.04,313.174,325.521,313.174z"/>
		</g>
	</g>
</g>
</svg>