<?xml version="1.0" encoding="iso-8859-1"?>
<svg fill="#000000" height="800px" width="800px" version="1.1" id="Layer_1" xmlns="http://www.w3.org/2000/svg" xmlns:xlink="http://www.w3.org/1999/xlink"
	 viewBox="0 0 489.901 489.901" xml:space="preserve">
<g>
	<g>
		<path d="M469.2,235.949H280.6l52.3-75.9c6.2-9.4,4.2-21.8-5.2-28.1s-21.8-4.2-28.1,5.2l-68.1,98.8H20.8
			c-11.4,0-20.8,9.4-20.8,20.8v95.7c0,11.4,9.4,20.8,20.8,20.8H137l-53.7,78c-6.2,9.4-4.2,21.8,5.2,28.1c3.1,2.1,16.4,7.9,28.1-5.2
			l69.4-100.9h282.1c11.4,0,20.8-9.4,21.8-20.8v-95.7C490,245.249,480.6,235.949,469.2,235.949z M164.9,332.649H40.6v-55.1h162.3
			L164.9,332.649z M338.1,332.649H214l38-55.1h86.2v55.1H338.1z M448.4,332.649h-68.7v-55.1h68.7L448.4,332.649L448.4,332.649z"/>
		<path d="M48,170.449c11.3,0,20.5-9.2,20.5-20.5v-122c0-11.3-9.2-20.5-20.5-20.5s-20.5,9.2-20.5,20.5v122
			C27.5,161.249,36.7,170.449,48,170.449z"/>
	</g>
</g>
</svg>