<?xml version="1.0" encoding="utf-8"?>
<svg version="1.1" id="Layer_1" xmlns="http://www.w3.org/2000/svg" xmlns:xlink="http://www.w3.org/1999/xlink" x="0px" y="0px"
	 viewBox="0 0 800 800" style="enable-background:new 0 0 800 800;" xml:space="preserve">
<style type="text/css">
	.st0{fill:none;stroke:#000000;stroke-width:33;stroke-miterlimit:10;}
</style>
<g>
	<g>
		<path d="M400,0C179.4,0,0,179.4,0,400s179.4,400,400,400s400-179.5,400-400S620.5,0,400,0z M400,766.7
			C197.8,766.7,33.3,602.2,33.3,400S197.8,33.3,400,33.3S766.7,197.8,766.7,400S602.2,766.7,400,766.7z"/>
	</g>
</g>
<g>
	<g>
		<path d="M578.3,118.9c-7.9-4.5-18-1.8-22.6,6.1L452.3,301.4c-4.7,7.9-2,18.1,5.9,22.8c0,0,0.1,0.1,0.1,0.1
			c19,10.7,35,45.5,35,75.7c0,9.2,7.5,16.7,16.7,16.7h206.7c9.2,0,16.7-7.5,16.7-16.7C733.3,288.3,668.2,170,578.3,118.9z
			 M525.4,383.3c-3.7-27.8-16.3-58.8-36.9-77.9l87.2-148.9c67.5,46.2,117.9,138.6,123.7,226.8L525.4,383.3L525.4,383.3z"/>
	</g>
</g>
<g>
	<g>
		<path d="M565,670.1l-88.3-177.6c-4.1-8.2-14.1-11.6-22.3-7.5c-0.2,0.1-0.5,0.2-0.7,0.4C443.1,491.3,413,500,400,500
			s-43.1-8.7-53.6-14.6c-8-4.5-18.2-1.6-22.7,6.5c-0.1,0.2-0.2,0.4-0.4,0.7L235,670.1c-4,8-1,17.6,6.8,22c98.3,55,218,55,316.3,0
			C565.9,687.8,568.9,678.1,565,670.1z M272.2,670.4l73.9-148.8c17.1,6.3,39.7,11.8,53.9,11.8c14.2,0,36.8-5.5,53.9-11.8l73.9,148.8
			C448.3,709.2,351.7,709.2,272.2,670.4z"/>
	</g>
</g>
<g>
	<g>
		<path d="M347.8,301.5c0-0.1-0.1-0.1-0.1-0.2L244.3,124.9c-4.6-7.9-14.7-10.5-22.6-6.1C131.8,170,66.7,288.3,66.7,400
			c0,9.2,7.5,16.7,16.7,16.7h206.8c9.2,0,16.7-7.5,16.7-16.7c0-30.2,16-65,34.9-75.7C349.6,319.7,352.4,309.5,347.8,301.5z
			 M274.6,383.3h-174c5.8-88.1,56.1-180.6,123.6-226.8l87.3,148.9C290.9,324.5,278.3,355.5,274.6,383.3z"/>
	</g>
</g>
<g>
	<g>
		<circle cx="400" cy="400" r="50"/>
	</g>
</g>
<line class="st0" x1="113" y1="147.3" x2="682" y2="646.3"/>
</svg>
