<?xml version="1.0" encoding="iso-8859-1"?>
<svg fill="#000000" height="800px" width="800px" version="1.1" id="Layer_1" xmlns="http://www.w3.org/2000/svg" xmlns:xlink="http://www.w3.org/1999/xlink"
	 viewBox="0 0 512 512" xml:space="preserve">
<g>
	<g>
		<path d="M165.038,370.926h-16.34c-4.512,0-8.17,3.657-8.17,8.17s3.658,8.17,8.17,8.17h16.34c4.512,0,8.17-3.657,8.17-8.17
			S169.55,370.926,165.038,370.926z"/>
	</g>
</g>
<g>
	<g>
		<path d="M412.866,468.968h-16.34c-4.512,0-8.17,3.657-8.17,8.17c0,4.513,3.658,8.17,8.17,8.17h16.34c4.512,0,8.17-3.657,8.17-8.17
			C421.036,472.625,417.378,468.968,412.866,468.968z"/>
	</g>
</g>
<g>
	<g>
		<path d="M462.432,436.288h-16.34c-4.512,0-8.17,3.657-8.17,8.17s3.658,8.17,8.17,8.17h16.34c4.512,0,8.17-3.657,8.17-8.17
			S466.944,436.288,462.432,436.288z"/>
	</g>
</g>
<g>
	<g>
		<path d="M363.301,403.607h-16.34c-4.512,0-8.17,3.657-8.17,8.17c0,4.513,3.658,8.17,8.17,8.17h16.34c4.512,0,8.17-3.657,8.17-8.17
			C371.471,407.264,367.813,403.607,363.301,403.607z"/>
	</g>
</g>
<g>
	<g>
		<path d="M65.907,403.607h-16.34c-4.512,0-8.17,3.657-8.17,8.17c0,4.513,3.658,8.17,8.17,8.17h16.34c4.512,0,8.17-3.657,8.17-8.17
			C74.077,407.264,70.419,403.607,65.907,403.607z"/>
	</g>
</g>
<g>
	<g>
		<path d="M255.999,26.691c-31.536,0-57.191,25.656-57.191,57.191c0,31.535,25.655,57.191,57.191,57.191
			s57.191-25.656,57.191-57.191C313.19,52.347,287.535,26.691,255.999,26.691z M255.999,124.733
			c-22.526,0-40.851-18.325-40.851-40.851s18.325-40.851,40.851-40.851s40.851,18.325,40.851,40.851
			S278.525,124.733,255.999,124.733z"/>
	</g>
</g>
<g>
	<g>
		<path d="M476.049,123.31c-8.146,0-15.908,3.133-21.787,8.464c-5.879-5.331-13.641-8.464-21.787-8.464
			c-4.512,0-8.17,3.657-8.17,8.17c0,4.513,3.658,8.17,8.17,8.17c6.196,0,11.728,3.467,14.437,9.047
			c1.367,2.815,4.221,4.601,7.35,4.601c3.129,0,5.983-1.787,7.35-4.601c2.71-5.58,8.242-9.047,14.437-9.047
			c4.512,0,8.17-3.657,8.17-8.17C484.219,126.967,480.561,123.31,476.049,123.31z"/>
	</g>
</g>
<g>
	<g>
		<path d="M178.655,215.966c-8.146,0-15.908,3.133-21.787,8.463c-5.879-5.33-13.641-8.463-21.787-8.463
			c-4.512,0-8.17,3.657-8.17,8.17c0,4.513,3.658,8.17,8.17,8.17c6.196,0,11.728,3.466,14.437,9.046
			c1.367,2.815,4.221,4.601,7.35,4.601c3.129,0,5.983-1.786,7.35-4.601c2.709-5.58,8.242-9.046,14.437-9.046
			c4.512,0,8.17-3.657,8.17-8.17C186.825,219.623,183.167,215.966,178.655,215.966z"/>
	</g>
</g>
<g>
	<g>
		<path d="M376.918,169.638c-8.146,0-15.908,3.133-21.787,8.463c-5.879-5.33-13.641-8.463-21.787-8.463
			c-4.512,0-8.17,3.657-8.17,8.17s3.658,8.17,8.17,8.17c6.196,0,11.728,3.466,14.437,9.046c1.367,2.815,4.221,4.601,7.35,4.601
			c3.129,0,5.983-1.787,7.35-4.601c2.709-5.58,8.242-9.046,14.437-9.046c4.512,0,8.17-3.657,8.17-8.17
			S381.43,169.638,376.918,169.638z"/>
	</g>
</g>
<g>
	<g>
		<path d="M507.396,275.34c-4.061-1.974-8.948-0.28-10.919,3.78c-7.921,16.313-24.098,26.445-42.216,26.445
			s-34.294-10.133-42.216-26.445c-1.367-2.814-4.221-4.601-7.35-4.601c-3.129,0-5.983,1.788-7.35,4.601
			c-7.922,16.313-24.099,26.445-42.216,26.445s-34.294-10.133-42.216-26.445c-1.367-2.814-4.221-4.601-7.35-4.601
			c-3.129,0-5.983,1.788-7.35,4.601c-7.922,16.313-24.099,26.445-42.216,26.445c-18.117,0-34.294-10.133-42.216-26.445
			c-1.367-2.814-4.221-4.601-7.35-4.601s-5.983,1.788-7.35,4.601c-7.922,16.313-24.099,26.445-42.216,26.445
			c-18.117,0-34.294-10.133-42.216-26.445c-1.367-2.814-4.221-4.601-7.35-4.601c-3.129,0-5.983,1.788-7.35,4.601
			c-7.922,16.313-24.099,26.445-42.216,26.445c-18.118,0-34.295-10.133-42.216-26.445c-1.971-4.059-6.859-5.75-10.919-3.78
			c-4.059,1.971-5.752,6.859-3.78,10.918c10.516,21.655,32.857,35.648,56.915,35.648c19.409,0,37.699-9.106,49.566-23.996
			c11.866,14.89,30.156,23.996,49.565,23.996s37.699-9.106,49.566-23.996c11.866,14.89,30.157,23.996,49.566,23.996
			s37.699-9.106,49.566-23.996c11.866,14.89,30.157,23.996,49.566,23.996c19.409,0,37.699-9.106,49.565-23.996
			c11.866,14.89,30.157,23.996,49.566,23.996c24.058,0,46.399-13.993,56.915-35.648C513.148,282.199,511.455,277.31,507.396,275.34z
			"/>
	</g>
</g>
</svg>