<?xml version="1.0" encoding="iso-8859-1"?>
<svg fill="#000000" version="1.1" id="Capa_1" xmlns="http://www.w3.org/2000/svg" xmlns:xlink="http://www.w3.org/1999/xlink"
	 width="800px" height="800px" viewBox="0 0 124.541 124.54"
	 xml:space="preserve">
<g>
	<g>
		<circle cx="69.153" cy="13.686" r="13.686"/>
		<path d="M97.759,61.177c-2.95-20.117-7.313-29.555-17.372-36.598c-2.849,2.938-6.828,4.772-11.234,4.772
			c-4.487,0-8.531-1.909-11.391-4.945c-3.723,3.123-6.574,7.375-9.133,11.226c-2.936,4.421-5.971,8.993-8.744,9.228
			c-0.295,0.025-0.578,0.079-0.854,0.149c-0.817-0.224-1.674-0.353-2.562-0.353c-5.373,0-9.745,4.371-9.745,9.746
			c0,1.468,1.19,2.657,2.658,2.657c1.468,0,2.657-1.189,2.657-2.657c0-1.936,1.255-3.566,2.987-4.169
			c0.003,0.123,0.003,0.245,0.013,0.369c0.235,2.772,2.557,4.864,5.288,4.864c0.151,0,0.302-0.005,0.456-0.019
			c0.039-0.003,0.076-0.012,0.115-0.016v66.45c0,1.469,1.19,2.658,2.658,2.658c1.468,0,2.658-1.189,2.658-2.658v-67.48
			c0-0.192-0.018-0.38-0.029-0.568c3.494-1.863,6.24-5.066,8.664-8.462v4.732c0,0-7.421,40.321-6.08,47.833
			c0,0,0.574,0.153,1.587,0.389l-0.114,3.312c-0.566,16.329-0.566,16.41-0.566,16.625c0,3.467,2.811,6.278,6.279,6.278
			c3.432,0,6.22-2.752,6.278-6.17c0.019-0.7,0.331-9.707,0.56-16.3l0.059-1.657c3.9,0.417,8.268,0.651,12.65,0.438l0.041,1.219
			c0.229,6.593,0.543,15.6,0.562,16.3c0.06,3.418,2.849,6.17,6.278,6.17c3.468,0,6.279-2.812,6.279-6.278
			c0-0.215,0-0.296-0.567-16.625l-0.103-2.968c0.659-0.228,1.312-0.465,1.944-0.731c0.082-5.449-6.081-46.228-7.071-47.145v-6.54
			c1.699,4.243,3.148,10.074,4.379,18.464c0.389,2.643,2.658,4.545,5.252,4.545c0.256,0,0.517-0.021,0.777-0.059
			C96.175,66.779,98.185,64.08,97.759,61.177z"/>
	</g>
</g>
</svg>