<?xml version="1.0" encoding="utf-8"?>
<svg version="1.1" id="Layer_1" xmlns="http://www.w3.org/2000/svg" xmlns:xlink="http://www.w3.org/1999/xlink" x="0px" y="0px"
	 viewBox="0 0 800 800" style="enable-background:new 0 0 800 800;" xml:space="preserve">
<style type="text/css">
	.st0{font-family:'MyriadPro-Regular';}
	.st1{font-size:42px;}
</style>
<g>
	<g>
		<path d="M499.6,569.5l-12.5-73.4c3.8-2.4,7.6-4.9,11.2-7.5l0.4-0.3c1.4-1.1,2.9-2.1,4.3-3.2c0.1,0,0.1-0.1,0.2-0.2
			c4.1-3.2,8-6.7,11.8-10.3l1.1-1c1.1-1.1,2.2-2.2,3.3-3.3l0.8-0.9c2-2,3.9-4.2,5.9-6.5l0.3-0.3c0.3-0.3,0.6-0.7,0.8-1
			c0.9-1,1.7-2.1,2.6-3.2c0.5-0.7,1.1-1.4,1.6-2c0.8-1,1.6-2.1,2.3-3.1c0.6-0.8,1.1-1.6,1.7-2.4l0.2-0.2c1.1-1.6,2.2-3.1,3.2-4.7
			c0.6-1,1.3-2,1.9-2.9c0.6-0.9,1.2-1.9,1.8-2.9c0.6-1.1,1.3-2.1,1.8-3.2l0.3-0.5c0.4-0.7,0.8-1.4,1.2-2.1c1-1.8,2-3.7,2.9-5.6
			c0.3-0.5,0.5-1.1,0.8-1.7l0.2-0.5c0.6-1.4,1.3-2.7,1.9-4c0.4-0.8,0.8-1.7,1.1-2.5c0.6-1.5,1.2-2.9,1.8-4.4l0.2-0.5
			c0.2-0.5,0.4-1,0.6-1.4c0.8-2.1,1.5-4.2,2.3-6.3c0.2-0.5,0.3-1,0.5-1.5l0.1-0.4c0.5-1.6,1-3.2,1.5-4.9c0.2-0.7,0.4-1.5,0.6-2.2
			c0.5-1.9,1-3.8,1.5-5.8c0.1-0.4,0.2-0.7,0.2-1c0.5-2.3,1-4.6,1.4-6.9l0.3-2c0.3-1.8,0.6-3.5,0.8-5.3l0.3-2.1
			c0.3-2.8,0.6-5,0.7-7.2c0.5-6.1,1-11.7,1.5-17.2c1.5-17.1,2.9-33.4,4.1-60.9l47.6-116.6c4-9.7,0.8-20.9-7.8-27L413.3,4.3
			c-7.9-5.7-18.6-5.7-26.5,0l-197.7,142c-8.5,6.1-11.7,17.3-7.8,27l47.6,116.6c1.2,27.4,2.6,43.7,4.1,60.8c0.5,5.5,1,11,1.4,17.1
			c0,0.1,0,0.1,0,0.2c0.2,2.2,0.4,4.5,0.7,7.1c0.1,0.6,0.1,1.2,0.2,1.7l0.1,0.4c0.2,1.8,0.5,3.6,0.8,5.3l0.3,2
			c0.4,2.3,0.9,4.6,1.4,6.9c0.1,0.4,0.2,0.7,0.3,1.2c0.4,1.9,0.9,3.8,1.4,5.7l0.6,2.2c0.5,1.6,1,3.2,1.5,4.9l0.6,2
			c0.7,2.1,1.5,4.2,2.2,6.3c0.2,0.5,0.4,1.1,0.6,1.6l0.1,0.3c0.6,1.5,1.2,3,1.8,4.5c0.4,0.8,0.7,1.7,1.1,2.5
			c0.6,1.4,1.2,2.7,1.9,4.1l0.3,0.6c0.3,0.5,0.5,1.1,0.8,1.6c0.9,1.9,1.9,3.7,2.9,5.5c0.4,0.7,0.8,1.5,1.2,2.2l0.2,0.4
			c0.6,1.1,1.2,2.2,1.9,3.2c0.6,0.9,1.1,1.9,1.7,2.8c0.6,1,1.3,1.9,1.9,2.9c1.1,1.6,2.1,3.2,3.3,4.8l0.3,0.5c0.5,0.7,1,1.4,1.5,2.1
			c0.8,1.1,1.6,2.1,2.3,3.1c0.5,0.7,1.1,1.4,1.6,2.1c0.8,1,1.7,2.1,2.6,3.1c0.3,0.3,0.6,0.7,0.9,1l0.3,0.4c2,2.3,3.9,4.4,6,6.6
			l0.7,0.7c1.1,1.1,2.2,2.2,3.2,3.2l1.2,1.1c3.8,3.6,7.7,7,11.7,10.2c0.1,0.1,0.3,0.2,0.4,0.3c1.4,1.1,2.8,2.2,4.2,3.2
			c0.1,0,0.1,0.1,0.2,0.1c0.1,0.1,0.2,0.1,0.2,0.2c3.6,2.7,7.4,5.2,11.2,7.6l-12.5,73.4c-97.2,0.3-176.2,79.4-176.2,176.7v31
			c0,12.5,10.2,22.7,22.7,22.7h506.1c12.5,0,22.7-10.2,22.7-22.7v-31C675.8,649,596.8,569.8,499.6,569.5z M272.1,275.6l-42-102.9
			L400,50.7l169.9,122l-42,102.9H422.7v-70.5c0-12.5-10.2-21.8-22.7-21.8c-12.5,0-22.7,7.9-22.7,20.5v71.9H272.1L272.1,275.6z
			 M312.6,438c-1.4-1.5-2.8-3-4.2-4.7l-0.9-1c-0.6-0.8-1.3-1.5-1.9-2.3c-0.4-0.5-0.8-1-1.2-1.5c-0.6-0.7-1.1-1.5-1.7-2.2
			c-0.3-0.5-0.7-0.9-1-1.4l-0.3-0.5c-0.8-1.1-1.6-2.3-2.4-3.5c-0.5-0.7-0.9-1.4-1.4-2.1c-0.4-0.7-0.8-1.3-1.2-2
			c-0.5-0.8-0.9-1.5-1.4-2.3l-0.3-0.5c-0.2-0.4-0.5-0.9-0.8-1.3c-0.7-1.3-1.4-2.7-2.1-4l-0.8-1.6c-0.5-1-0.9-1.9-1.4-2.9
			c-0.3-0.6-0.5-1.2-0.8-1.8c-0.5-1.1-0.9-2.1-1.4-3.4l-0.5-1.3c-0.6-1.5-1.1-3-1.6-4.5l-0.5-1.5c-0.4-1.2-0.7-2.4-1.1-3.6l-0.4-1.5
			c-0.4-1.4-0.7-2.8-1-4.1l-0.2-0.8c-0.4-1.7-0.7-3.3-1-4.9L281,375c-0.2-1.3-0.4-2.6-0.6-3.9l-0.2-1.5c-0.2-1.7-0.4-3.4-0.5-5.1
			c0-0.1,0-0.1,0-0.2c-0.5-6.2-1-11.9-1.5-17.6c-0.7-8.3-1.4-16.4-2.1-25.8h247.8c-0.7,9.4-1.4,17.5-2.1,25.8
			c-0.5,5.6-1,11.3-1.5,17.6c-0.1,1.8-0.3,3.5-0.5,5.2l-0.2,1.6c-0.2,1.3-0.4,2.6-0.6,3.8l-0.2,1.5c-0.3,1.7-0.6,3.4-1,5l-0.2,0.8
			c-0.3,1.4-0.7,2.8-1.1,4.2c-0.1,0.5-0.3,1.1-0.4,1.6c-0.3,1.2-0.7,2.4-1.1,3.6l-0.4,1.4c-0.5,1.5-1.1,3-1.6,4.5l-0.6,1.4
			c-0.4,1.1-0.9,2.1-1.3,3.3c-0.2,0.6-0.5,1.2-0.8,1.8c-0.4,1-0.9,1.9-1.4,2.9l-0.8,1.6c-0.7,1.3-1.4,2.7-2.1,4
			c-0.2,0.4-0.5,0.9-0.8,1.3l-0.3,0.6c-0.4,0.8-0.9,1.5-1.3,2.3c-0.4,0.7-0.8,1.4-1.3,2.1c-0.4,0.7-0.9,1.4-1.3,2.1
			c-0.8,1.2-1.5,2.3-2.4,3.5l-0.2,0.3c-0.4,0.5-0.8,1.1-1.2,1.6c-0.6,0.8-1.1,1.5-1.7,2.2c-0.4,0.5-0.8,1-1.1,1.4
			c-0.6,0.8-1.2,1.5-1.9,2.3l-0.8,1c-1.4,1.7-2.9,3.3-4.3,4.7l-0.6,0.6c-0.8,0.8-1.6,1.6-2.4,2.4l-0.8,0.8c-2.8,2.7-5.7,5.2-8.7,7.6
			c-0.1,0-0.1,0.1-0.2,0.1c-1,0.8-2,1.5-3,2.3c0,0-0.3,0.2-0.3,0.2c-7.6,5.6-15.9,10.3-24.6,14c-14.9,6.3-30.7,9.5-46.8,9.5
			c-16.2,0-31.9-3.2-46.8-9.5c-8.7-3.7-17-8.4-24.6-14v0l-0.3-0.2c-1-0.7-2-1.5-2.9-2.2c-0.1-0.1-0.2-0.2-0.3-0.2
			c-2.9-2.3-5.8-4.9-8.6-7.5l-0.8-0.8c-0.8-0.8-1.6-1.6-2.5-2.5L312.6,438z M456.8,589.2l-56.8,53l-56.8-53l12.4-73.1
			c14.5,3.6,29.3,5.4,44.4,5.4s29.9-1.8,44.4-5.4L456.8,589.2z M630.4,754.6H169.6v-8.3c0-72.4,58.9-131.3,131.3-131.3h3.2l66.4,62
			H264.2c-12.5,0-22.7,10.2-22.7,22.7c0,12.5,10.2,22.7,22.7,22.7h203.4c12.5,0,22.7-10.2,22.7-22.7c0-12.5-10.2-22.7-22.7-22.7
			h-38.3l66.4-62h3.2c72.4,0,131.3,58.9,131.3,131.3L630.4,754.6L630.4,754.6z"/>
	</g>
</g>
<g>
	<g>
		<path d="M558,695.2c-0.3-1.4-0.7-2.9-1.3-4.2c-0.6-1.4-1.3-2.7-2.1-3.9c-0.8-1.2-1.8-2.4-2.8-3.5c-5.3-5.3-13.1-7.7-20.5-6.2
			c-1.5,0.3-2.9,0.7-4.2,1.3c-1.4,0.6-2.7,1.3-3.9,2.1c-1.2,0.8-2.4,1.8-3.5,2.8c-1,1-2,2.2-2.8,3.5c-0.8,1.2-1.5,2.5-2.1,3.9
			c-0.6,1.4-1,2.8-1.3,4.2c-0.3,1.5-0.5,3-0.5,4.5c0,1.5,0.2,3,0.5,4.4s0.7,2.9,1.3,4.2c0.6,1.4,1.3,2.7,2.1,3.9
			c0.8,1.2,1.8,2.4,2.8,3.5c1,1,2.2,2,3.5,2.8c1.2,0.8,2.5,1.5,3.9,2.1c1.4,0.6,2.8,1,4.2,1.3c1.5,0.3,3,0.5,4.4,0.5
			c1.5,0,3-0.2,4.4-0.5c1.4-0.3,2.9-0.7,4.2-1.3c1.4-0.6,2.7-1.3,3.9-2.1c1.2-0.8,2.4-1.8,3.5-2.8c1-1,2-2.2,2.8-3.5
			c0.8-1.2,1.5-2.5,2.1-3.9c0.6-1.4,1-2.8,1.3-4.2c0.3-1.5,0.4-3,0.4-4.4C558.5,698.2,558.3,696.7,558,695.2z"/>
	</g>
</g>
<g>
	<path d="M438.4,147.9c-5.9-3.7-12.7-5.7-19.6-5.7c-0.2,0-0.5,0-0.7,0c8-6.3,13.7-15.2,16-25.2c0.1-0.5,0-1-0.4-1.4
		c-0.4-0.4-0.9-0.5-1.4-0.4c-8.2,1.8-15.7,6-21.7,11.9c-0.5,0.4-0.9,0.9-1.3,1.4c0.4-2.6,0.6-5.3,0.6-8c0-10.4-2.9-20.6-8.5-29.4
		c-0.3-0.4-0.8-0.7-1.3-0.7s-1,0.3-1.3,0.7c-5.6,8.8-8.5,19-8.5,29.4c0,2.7,0.2,5.4,0.6,8c-0.4-0.5-0.9-0.9-1.3-1.4
		c-6-5.9-13.5-10.1-21.7-11.9c-0.5-0.1-1,0-1.4,0.4c-0.4,0.4-0.5,0.9-0.4,1.4c2.3,10,8,18.9,16,25.2c-0.2,0-0.5,0-0.7,0
		c-7,0-13.7,2-19.6,5.7c-0.4,0.3-0.7,0.8-0.7,1.3s0.3,1,0.7,1.3c5.6,3.6,12,5.5,18.6,5.7c-1.5,1.6-2.7,3.4-3.7,5.4
		c-0.2,0.5-0.2,1,0,1.5c0.3,0.4,0.7,0.7,1.2,0.7c0.3,0,0.6,0,0.8,0c7.8,0,15.1-3.6,19.9-9.5v14.7c0,0.8,0.7,1.5,1.5,1.5
		c0.8,0,1.5-0.7,1.5-1.5v-14.7c4.8,5.9,12.1,9.5,19.9,9.5c0.3,0,0.6,0,0.8,0c0.5,0,1-0.3,1.2-0.7c0.3-0.4,0.3-1,0-1.5
		c-1-2-2.3-3.8-3.7-5.4c6.6-0.2,13-2.1,18.6-5.7c0.4-0.3,0.7-0.8,0.7-1.3C439.1,148.6,438.9,148.1,438.4,147.9z M412.7,129.3
		c5-5,11.1-8.5,17.8-10.5c-3,10.1-9.8,18.9-18.9,24.2c-2.7,1.6-5.5,2.8-8.4,3.7c2-3.7,3.6-7.7,4.7-11.7
		C409.3,133,410.9,131,412.7,129.3z M400,94.8c4.4,7.8,6.8,16.7,6.8,25.7c0,9-2.3,17.9-6.8,25.7c-4.4-7.8-6.8-16.7-6.8-25.7
		C393.2,111.5,395.6,102.6,400,94.8z M369.5,118.8c6.7,1.9,12.8,5.5,17.8,10.5c1.8,1.8,3.4,3.7,4.8,5.7c1.1,4.1,2.7,8,4.7,11.7
		c-2.9-0.9-5.7-2.2-8.4-3.7C379.3,137.7,372.5,128.9,369.5,118.8z M381.2,145.2c2,0,4,0.2,6,0.5c2.8,1.6,5.8,2.9,8.9,3.9
		c-3.8,1.8-7.9,3-12.1,3.3c0,0-0.1,0-0.1,0c-6.5,0.5-12.8-0.8-18.5-3.8C370.2,146.6,375.7,145.2,381.2,145.2z M380.5,160.6
		c1.2-1.7,2.6-3.3,4.2-4.7c3.6-0.3,7.2-1.2,10.6-2.7C391.5,157.4,386.2,160.1,380.5,160.6z M404.7,153.3c3.4,1.4,7,2.3,10.6,2.7
		c1.6,1.4,3,2.9,4.2,4.7C413.8,160.1,408.5,157.4,404.7,153.3z M416.1,153C416.1,153,416.1,153,416.1,153c-4.3-0.4-8.4-1.5-12.2-3.3
		c3.1-1,6.1-2.3,8.9-3.9c2-0.4,4-0.5,6-0.5c5.5,0,11,1.4,15.8,3.9C428.9,152.2,422.6,153.5,416.1,153z"/>
	<path d="M400,84.8c-25.9,0-47,21.1-47,47s21.1,47,47,47s47-21.1,47-47S425.9,84.8,400,84.8z M400,175.8c-24.3,0-44-19.7-44-44
		s19.7-44,44-44s44,19.7,44,44S424.3,175.8,400,175.8z"/>
</g>
<text transform="matrix(1 0 0 1 483.7545 750.629)" class="st0 st1">Nico :P</text>
</svg>
