<?xml version="1.0" encoding="utf-8"?>
<svg fill="#000000" height="800px" width="800px" version="1.2" baseProfile="tiny" id="Layer_1" xmlns="http://www.w3.org/2000/svg" xmlns:xlink="http://www.w3.org/1999/xlink"
	  viewBox="0 0 256 256" xml:space="preserve">
<path d="M41,53.1c9.1,0,16.6,7.4,16.6,16.6S50.2,86.2,41,86.2s-16.6-7.4-16.6-16.6S31.9,53.1,41,53.1z M84.7,53.1
	c9.1,0,16.6,7.4,16.6,16.6s-7.4,16.6-16.6,16.6s-16.6-7.4-16.6-16.6S75.6,53.1,84.7,53.1z M62.2,11.9c9.1,0,16.6,7.4,16.6,16.6
	S71.4,45,62.2,45s-16.6-7.4-16.6-16.6S53.1,11.9,62.2,11.9z M106.9,11.9c9.1,0,16.6,7.4,16.6,16.6S116.1,45,106.9,45
	s-16.6-7.4-16.6-16.6S97.8,11.9,106.9,11.9z M149.3,11.9c9.1,0,16.6,7.4,16.6,16.6S158.5,45,149.3,45s-16.6-7.4-16.6-16.6
	S140.2,11.9,149.3,11.9z M191.5,11.9c9.1,0,16.6,7.4,16.6,16.6S200.7,45,191.5,45S175,37.6,175,28.5S182.4,11.9,191.5,11.9z
	 M171.1,53.1c9.1,0,16.6,7.4,16.6,16.6s-7.4,16.6-16.6,16.6c-9.1,0-16.6-7.4-16.6-16.6S161.9,53.1,171.1,53.1z M126.1,53.1
	c9.1,0,16.6,7.4,16.6,16.6c0,9.1-7.4,16.6-16.6,16.6c-9.2,0-16.6-7.4-16.6-16.6C109.5,60.5,116.9,53.1,126.1,53.1z M214.6,53.1
	c9.1,0,16.6,7.4,16.6,16.6c0,9.1-7.4,16.6-16.6,16.6c-9.2,0-16.6-7.4-16.6-16.6C198.1,60.5,205.5,53.1,214.6,53.1z M41.1,53.5
	c9,0,16.3,7.3,16.3,16.3s-7.3,16.3-16.3,16.3s-16.3-7.3-16.3-16.3S32.1,53.5,41.1,53.5z M59.5,89.3H40.9H22.2
	c-11.3,0-18.5,9.3-18.5,21.1V164c0,9.7,12.7,9.7,12.7,0v-50.2c0-1.2,1-2,2-2c1.2,0,2,0.8,2,2v121.8c0,5,4,9.1,9.1,9.1
	c5,0,9.1-4,9.1-9.1v-60.6c0-1.2,1-2,2-2h0.4c1.2,0,2,1,2,2v60.6c0,5,4,9.1,9.1,9.1c5,0,9.1-4,9.1-9.1V113.7c0-1.2,1-2,2-2
	c1.2,0,2,1,2,2v50.4c0,9.7,12.7,9.7,12.7,0v-53.6C78.2,98.6,71.1,89.3,59.5,89.3z M144.7,89.3h-18.7h-18.7
	c-11.3,0-18.5,9.3-18.5,21.1V164c0,9.7,12.7,9.7,12.7,0v-50.2c0-1.2,1-2,2-2c1.2,0,2,0.8,2,2v121.8c0,5,4,9.1,9.1,9.1
	c5,0,9.1-4,9.1-9.1v-60.6c0-1.2,1-2,2-2h0.4c1.2,0,2,1,2,2v60.6c0,5,4,9.1,9.1,9.1c5,0,9.1-4,9.1-9.1V113.7c0-1.2,1-2,2-2
	c1.2,0,2,1,2,2v50.4c0,9.7,12.7,9.7,12.7,0v-53.6C163.4,98.6,156.3,89.3,144.7,89.3z M233.7,89.3h-18.7h-18.7
	c-11.3,0-18.5,9.3-18.5,21.1V164c0,9.7,12.7,9.7,12.7,0v-50.2c0-1.2,1-2,2-2c1.2,0,2,0.8,2,2v121.8c0,5,4,9.1,9.1,9.1
	c5,0,9.1-4,9.1-9.1v-60.6c0-1.2,1-2,2-2h0.4c1.2,0,2,1,2,2v60.6c0,5,4,9.1,9.1,9.1c5,0,9.1-4,9.1-9.1V113.7c0-1.2,1-2,2-2
	c1.2,0,2,1,2,2v50.4c0,9.7,12.7,9.7,12.7,0v-53.6C252.4,98.6,245.3,89.3,233.7,89.3z"/>
</svg>