<?xml version="1.0" encoding="iso-8859-1"?>
<svg height="800px" width="800px" version="1.1" id="Layer_1" xmlns="http://www.w3.org/2000/svg" xmlns:xlink="http://www.w3.org/1999/xlink"
	 viewBox="0 0 511.986 511.986" xml:space="preserve">
<path style="fill:#5D9CEC;" d="M359.442,230.555l-43.326-27.343l-54.007-10c0,0-41.327-4-44.662,0
	c-3.336,4-74.662,47.998-74.662,47.998l-38.671,53.999l-4,37.998l-5.327,82.779h39.326l11.336-95.997l23.335-48.779
	c0,0,33.327-24.656,35.327-24.656s51.881-11.343,51.881-11.343l34.124,8.671l51.998,26l23.327,33.999l14,91.996l-2.672,20.109
	h37.344V313.882L359.442,230.555z"/>
<path style="fill:#A0D468;" d="M438.112,263.211l-54.124-66.998l-47.873-30.328l-74.334-12.999h-38.999l-46.67,14.999
	l-64.662,41.999l-37.663,59.327l-14.999,93.34l-7.336,53.437h37.335l6.664-45.108l1.999-57.326l13.336-26.999l33.327-48.671
	l24.335-19.999l29.663-14.672l47.334-7c0,0,41.327,1.671,44.327,2.343c3,0.656,51.67,17.328,51.67,17.328l49.999,45.717
	l12.672,34.608l8.656,21.671v54.326l1.344,43.78h38.653v-91.779L438.112,263.211z"/>
<polygon style="fill:#FC6E51;" points="498.766,331.208 472.766,229.883 417.441,164.557 346.114,119.887 262.109,107.216 
	212.783,107.216 160.112,125.887 108.786,157.214 59.452,209.212 28.117,261.602 11.453,343.208 11.453,415.987 51.452,415.987 
	54.788,306.555 68.787,264.555 102.786,214.556 144.785,181.323 200.783,157.214 265.445,152.558 321.444,162.557 392.113,203.212 
	446.766,281.21 460.11,415.987 502.109,415.987 "/>
<path style="fill:#AC92EB;" d="M255.992,223.993c-70.693,0-127.996,57.295-127.996,127.996v63.998h21.336V351.99
	c0-28.499,11.093-55.279,31.24-75.435c20.141-20.141,46.929-31.234,75.42-31.234c28.499,0,55.28,11.094,75.42,31.234
	c20.14,20.155,31.232,46.936,31.232,75.435v63.998h21.344V351.99C383.988,281.288,326.678,223.993,255.992,223.993z"/>
<path style="fill:#4FC2E9;" d="M255.992,181.323c-94.255,0-170.658,76.404-170.658,170.667v63.998h21.327V351.99
	c0-20.172,3.945-39.733,11.727-58.123c7.522-17.78,18.296-33.749,32.015-47.483c13.718-13.718,29.693-24.483,47.475-31.999
	c18.391-7.781,37.944-11.734,58.115-11.734c20.172,0,39.718,3.953,58.124,11.734c17.78,7.516,33.748,18.28,47.466,31.999
	c13.719,13.734,24.5,29.703,32.016,47.483c7.781,18.39,11.734,37.951,11.734,58.123v63.998h21.312V351.99
	C426.643,257.727,350.239,181.323,255.992,181.323z"/>
<path style="fill:#FFCE54;" d="M255.992,138.652c-117.816,0-213.329,95.512-213.329,213.337v63.998h21.335V351.99
	c0-25.938,5.07-51.076,15.078-74.732c9.672-22.858,23.515-43.389,41.154-61.029c17.641-17.641,38.18-31.499,61.037-41.155
	c23.656-10.016,48.796-15.078,74.725-15.078c25.937,0,51.062,5.062,74.717,15.078c22.874,9.656,43.404,23.515,61.045,41.155
	c17.641,17.64,31.483,38.17,41.155,61.029c10.015,23.656,15.076,48.795,15.076,74.732v63.998h21.344V351.99
	C469.329,234.164,373.801,138.652,255.992,138.652z"/>
<path style="fill:#ED5564;" d="M255.992,95.997C114.614,95.997,0,210.603,0,351.99v63.998h21.336V351.99
	c0-31.702,6.195-62.42,18.429-91.341c11.82-27.937,28.741-53.045,50.296-74.591c21.562-21.563,46.654-38.483,74.599-50.295
	c28.913-12.234,59.646-18.438,91.333-18.438s62.421,6.203,91.341,18.438c27.937,11.812,53.03,28.733,74.592,50.295
	c21.562,21.546,38.467,46.654,50.295,74.591c12.234,28.921,18.422,59.639,18.422,91.341v63.998h21.343V351.99
	C511.984,210.603,397.363,95.997,255.992,95.997z"/>
</svg>