<?xml version="1.0" encoding="iso-8859-1"?>
<svg fill="#000000" height="800px" width="800px" version="1.1" id="Layer_1" xmlns="http://www.w3.org/2000/svg" xmlns:xlink="http://www.w3.org/1999/xlink"
	 viewBox="0 0 512 512" xml:space="preserve">
<g>
	<g>
		<path d="M251.057,100.294h-10.639c-85.371,0-154.827,69.456-154.827,154.827c0,36.856,13.169,72.564,37.084,100.543
			c1.74,2.036,4.208,3.082,6.692,3.082c2.022,0,4.055-0.693,5.713-2.11c3.693-3.157,4.129-8.71,0.971-12.404
			c-21.192-24.795-32.863-56.442-32.863-89.111c-0.001-75.669,61.561-137.232,137.231-137.232h10.639
			c4.859,0,8.798-3.939,8.798-8.798S255.917,100.294,251.057,100.294z"/>
	</g>
</g>
<g>
	<g>
		<path d="M394.753,448.658h-43.988v-19.516c0-4.859-3.938-8.798-8.798-8.798c-4.86,0-8.798,3.939-8.798,8.798v19.516h-65.771
			v-91.484h65.771v44.989c0,4.859,3.938,8.798,8.798,8.798c4.86,0,8.798-3.939,8.798-8.798v-44.989h29.267
			c7.7,0,14.931-3.002,20.357-8.442c5.436-5.436,8.429-12.665,8.429-20.355c0-15.879-12.913-28.798-28.785-28.798H240.418
			c-24.514,0-44.458-19.944-44.458-44.457s19.944-44.458,44.457-44.458h31.167v12.141c0,4.859,3.938,8.798,8.798,8.798h9.559v24.891
			c0,4.859,3.938,8.798,8.798,8.798h56.528c4.86,0,8.798-3.939,8.798-8.798v-24.891h9.572c4.86,0,8.798-3.939,8.798-8.798v-99.038
			c0-4.859-3.938-8.798-8.798-8.798c-4.86,0-8.798,3.939-8.798,8.798v90.24h-75.66V86.218h75.66v12.133
			c0,4.859,3.938,8.798,8.798,8.798c4.86,0,8.798-3.939,8.798-8.798v-20.93c0-4.859-3.938-8.798-8.798-8.798h-9.572V52.435
			c13.492-1.086,24.141-12.405,24.141-26.171C388.205,11.782,376.423,0,361.94,0h-69.876c-14.483,0-26.265,11.782-26.265,26.264
			c0,13.767,10.649,25.085,24.141,26.17v16.188h-9.559c-4.86,0-8.798,3.939-8.798,8.798v115.648h-31.167
			c-34.216,0-62.053,27.837-62.053,62.053s27.837,62.053,62.053,62.053h9.384v75.179h-9.384c-29.516,0-57.635-9.225-81.32-26.677
			c-3.911-2.882-9.419-2.048-12.301,1.864c-2.882,3.912-2.048,9.419,1.864,12.301c26.731,19.696,58.459,30.107,91.757,30.107h9.384
			v38.71h-43.988c-8.462,0-16.416,3.294-22.396,9.275c-5.98,5.981-9.275,13.934-9.275,22.396c0,17.464,14.208,31.672,31.672,31.672
			h188.938c8.455,0,16.405-3.295,22.384-9.275c5.981-5.98,9.275-13.934,9.275-22.396
			C426.412,462.867,412.209,448.658,394.753,448.658z M267.398,317.174h112.633c6.17,0,11.189,5.025,11.189,11.202
			c0,2.991-1.164,5.802-3.286,7.924c-2.108,2.114-4.914,3.279-7.904,3.279h-38.065h-74.569V317.174z M307.538,231.602h38.933v16.094
			h-38.933V231.602z M346.47,68.623h-38.933V52.529h38.933V68.623z M283.397,26.265c0-4.78,3.889-8.669,8.67-8.669h69.876
			c4.78,0,8.67,3.889,8.67,8.669c0,4.78-3.889,8.669-8.67,8.669h-69.876C287.286,34.934,283.397,31.045,283.397,26.265z
			 M404.694,490.285c-2.657,2.658-6.188,4.121-9.943,4.121H205.813c-7.762,0-14.076-6.314-14.076-14.076
			c0-3.762,1.464-7.297,4.121-9.955c2.657-2.658,6.194-4.121,9.955-4.121h188.938c7.755,0,14.063,6.314,14.063,14.076
			C408.816,484.091,407.352,487.627,404.694,490.285z"/>
	</g>
</g>
</svg>