<?xml version="1.0" encoding="iso-8859-1"?>
<svg fill="#000000" height="800px" width="800px" version="1.1" id="Capa_1" xmlns="http://www.w3.org/2000/svg" xmlns:xlink="http://www.w3.org/1999/xlink"
	 viewBox="0 0 429.688 429.688" xml:space="preserve">
<path id="XMLID_252_" d="M183.24,163.763c2.166-15.354,15.506-26.933,31.031-26.933c15.526,0,28.868,11.579,31.034,26.933
	c0.617,4.375-2.43,8.422-6.805,9.039c-0.379,0.054-0.755,0.08-1.127,0.08c-3.923,0-7.348-2.887-7.912-6.883
	c-1.059-7.507-7.589-13.168-15.19-13.168c-7.6,0-14.129,5.661-15.188,13.168c-0.617,4.375-4.663,7.422-9.039,6.804
	C185.669,172.184,182.623,168.138,183.24,163.763z M164.04,111.59c0.379,0.054,0.755,0.08,1.127,0.08
	c3.922,0,7.348-2.888,7.911-6.884c1.059-7.508,7.589-13.169,15.188-13.169s14.13,5.662,15.19,13.171
	c0.618,4.375,4.668,7.421,9.04,6.803c4.375-0.618,7.42-4.665,6.802-9.04c-2.168-15.354-15.509-26.934-31.033-26.934
	c-15.525,0-28.866,11.58-31.031,26.935C156.619,106.927,159.665,110.974,164.04,111.59z M27.23,45.59h394.458c4.418,0,8-3.582,8-8
	s-3.582-8-8-8H27.23c-4.418,0-8,3.582-8,8S22.812,45.59,27.23,45.59z M252.097,111.59c4.373,0.62,8.422-2.429,9.039-6.804
	c1.059-7.508,7.589-13.169,15.189-13.169c7.6,0,14.13,5.662,15.188,13.169c0.564,3.996,3.989,6.884,7.912,6.884
	c0.372,0,0.748-0.026,1.127-0.08c4.375-0.617,7.422-4.664,6.805-9.039c-2.166-15.355-15.507-26.935-31.032-26.935
	s-28.867,11.58-31.033,26.935C244.675,106.927,247.722,110.974,252.097,111.59z M101.986,172.802
	c4.377,0.621,8.422-2.427,9.04-6.803c1.061-7.508,7.591-13.169,15.19-13.169c7.6,0,14.13,5.661,15.189,13.168
	c0.563,3.996,3.988,6.883,7.911,6.883c0.372,0,0.749-0.026,1.128-0.08c4.375-0.617,7.421-4.664,6.804-9.039
	c-2.166-15.354-15.507-26.933-31.032-26.933c-15.523,0-28.865,11.578-31.033,26.932C94.565,168.136,97.611,172.184,101.986,172.802z
	 M115.399,104.785c0.616,4.374,4.66,7.417,9.038,6.806c4.375-0.617,7.422-4.663,6.806-9.038
	c-2.164-15.356-15.504-26.936-31.032-26.936c-15.525,0-28.866,11.58-31.032,26.935c-0.617,4.375,2.429,8.422,6.804,9.039
	c0.379,0.054,0.755,0.08,1.127,0.08c3.923,0,7.348-2.888,7.912-6.884c1.059-7.508,7.589-13.169,15.189-13.169
	C107.812,91.617,114.342,97.278,115.399,104.785z M229.441,277.645c7.363,11.133,0.294,25.893-10.407,48.234
	c-2.674,5.583-5.706,11.912-8.764,18.703c-7.337,16.29-20.026,30.165-36.693,40.126c-16.847,10.069-36.618,15.391-57.174,15.391
	c-9.813,0-22.127-1.786-32.941-4.777c-0.073-0.02-0.146-0.042-0.218-0.063c-26.752-8.066-48.38-25.489-59.343-47.807h0
	c-3.225-6.566-6.269-12.542-8.954-17.814c-12.122-23.8-18.799-36.91-12.579-47.474c2.764-4.692,7.31-7.661,14.402-9.618
	c-0.734-3.445-1.104-6.973-1.104-10.556c0-27.827,22.639-50.465,50.467-50.465c0.307,0,0.611,0.003,0.917,0.008
	c15.016-8.452,32.025-12.908,49.353-12.908c43.65,0,82.282,28.254,95.736,69.334C220.087,269.49,226.004,272.449,229.441,277.645z
	 M91.509,218.354c6.172,3.589,11.577,8.488,15.798,14.447c2.948-0.563,5.987-0.857,9.095-0.857c22.394,0,41.487,15.46,46.734,36.495
	c7.454-0.926,14.567-1.379,19.501-1.599c4.188-0.187,8.164-0.287,11.919-0.279c-13.035-31.065-43.739-51.936-78.153-51.936
	C107.919,214.625,99.529,215.893,91.509,218.354z M116.401,247.944c-3.543,0-6.959,0.574-10.155,1.635
	c-0.063,0.021-0.125,0.043-0.188,0.063c-10.179,3.45-18.101,11.858-20.81,22.422c9.993,3.179,19.316,8.376,27.314,15.328
	c8.886-6.269,18.806-11.2,29.575-14.697c1.643-0.533,3.381-1.02,5.184-1.463C143.45,257.741,130.972,247.944,116.401,247.944z
	 M31.665,261.99c0,2.709,0.309,5.371,0.921,7.958c7.3-0.695,16.067-1.106,26.563-1.477c3.493-0.122,6.975-0.006,10.418,0.341
	c3.057-12.759,11.169-23.487,22.059-30.023c-5.88-6.467-14.049-10.508-22.913-11.169c-0.145-0.006-0.288-0.016-0.432-0.03
	c-0.713-0.044-1.43-0.066-2.15-0.066C47.127,227.524,31.665,242.985,31.665,261.99z M119.056,334.282
	c0-11.152-4.539-22.051-12.807-30.809c-0.056-0.057-0.111-0.116-0.166-0.175c-0.205-0.215-0.412-0.428-0.621-0.641
	c-8.365-8.483-19.005-14.276-30.47-16.801c-0.255-0.042-0.505-0.095-0.751-0.16c-4.741-0.982-9.616-1.405-14.526-1.234
	c-11.412,0.403-22.991,0.942-31.333,2.108c-0.127,0.021-0.254,0.039-0.381,0.054c-0.848,0.122-1.663,0.251-2.438,0.387
	c-8.248,1.448-9.364,3.199-9.407,3.272c-0.008,0.014-0.79,1.458,1.482,7.685c2.187,5.993,6.326,14.119,11.566,24.408
	c2.71,5.32,5.781,11.351,9.058,18.021l0,0c7.706,15.687,22.043,28.498,40.113,36.125c-11.464-15.661-16.871-34.564-15.063-53.813
	c0.413-4.399,4.317-7.626,8.713-7.217c4.399,0.413,7.63,4.314,7.217,8.713c-1.709,18.199,4.375,35.438,17.211,49.122
	C110.525,364.013,119.056,349.736,119.056,334.282z M216.096,286.472c-0.771-1.164-5.408-4.867-32.746-3.647
	c-15.176,0.677-28.396,2.532-36.271,5.089c-8.542,2.774-16.442,6.586-23.575,11.372c7.505,10.419,11.552,22.548,11.552,34.997
	c0,19.373-9.612,37.236-25.688,49.495c2.477,0.21,4.847,0.321,7.034,0.321c35.002,0,66.862-18.521,79.278-46.087
	c3.136-6.962,6.21-13.381,8.923-19.044C211.097,305.409,218.457,290.043,216.096,286.472z M278.1,172.802
	c4.388,0.619,8.422-2.429,9.04-6.803c1.06-7.507,7.59-13.169,15.189-13.169s14.13,5.662,15.189,13.169
	c0.564,3.996,3.989,6.883,7.912,6.883c0.372,0,0.749-0.026,1.128-0.08c4.375-0.618,7.421-4.665,6.804-9.04
	c-2.168-15.354-15.509-26.933-31.033-26.933s-28.865,11.579-31.033,26.933C270.679,168.137,273.725,172.184,278.1,172.802z
	 M421.688,334.816H257.034c-4.418,0-8,3.582-8,8s3.582,8,8,8h164.653c4.418,0,8-3.582,8-8S426.106,334.816,421.688,334.816z
	 M269.866,227.209c0.564,3.996,3.989,6.883,7.912,6.883c0.372,0,0.749-0.026,1.128-0.08c4.375-0.618,7.421-4.665,6.804-9.04
	c-2.168-15.354-15.51-26.933-31.034-26.933c-15.523,0-28.864,11.579-31.033,26.933c-0.617,4.375,2.428,8.422,6.803,9.04
	c4.388,0.619,8.423-2.428,9.041-6.803c1.06-7.508,7.59-13.17,15.189-13.17C262.276,214.04,268.806,219.702,269.866,227.209z
	 M421.418,163.763c-2.166-15.354-15.508-26.933-31.034-26.933c-15.525,0-28.865,11.579-31.03,26.934
	c-0.616,4.375,2.43,8.421,6.805,9.039c4.375,0.613,8.422-2.43,9.039-6.805c1.059-7.507,7.587-13.167,15.187-13.167
	c7.602,0,14.132,5.661,15.19,13.168c0.564,3.996,3.989,6.883,7.912,6.883c0.372,0,0.748-0.026,1.127-0.08
	C418.989,172.184,422.035,168.138,421.418,163.763z M271.296,286.186c-0.617,4.375,2.43,8.421,6.805,9.039
	c4.376,0.618,8.423-2.429,9.039-6.804c1.059-7.507,7.589-13.169,15.188-13.169s14.131,5.662,15.19,13.17
	c0.564,3.996,3.989,6.882,7.912,6.882c0.372,0,0.749-0.026,1.129-0.08c4.374-0.618,7.42-4.665,6.802-9.04
	c-2.168-15.354-15.51-26.933-31.033-26.933C286.803,259.252,273.462,270.831,271.296,286.186z M340.154,111.59
	c4.374,0.62,8.422-2.429,9.039-6.804c1.059-7.508,7.588-13.169,15.188-13.169c7.601,0,14.131,5.662,15.19,13.17
	c0.564,3.996,3.989,6.883,7.912,6.883c0.372,0,0.749-0.026,1.128-0.08c4.375-0.617,7.421-4.665,6.804-9.04
	c-2.168-15.355-15.509-26.934-31.034-26.934c-15.524,0-28.865,11.58-31.031,26.935C332.732,106.927,335.779,110.974,340.154,111.59z
	 M357.921,227.209c0.564,3.996,3.989,6.883,7.912,6.883c0.372,0,0.748-0.026,1.127-0.08c4.375-0.617,7.422-4.664,6.805-9.039
	c-2.166-15.354-15.508-26.934-31.034-26.934s-28.865,11.58-31.029,26.935c-0.616,4.375,2.431,8.421,6.806,9.038
	c4.384,0.617,8.422-2.432,9.038-6.806c1.058-7.507,7.586-13.167,15.186-13.167C350.332,214.04,356.863,219.701,357.921,227.209z
	 M366.158,295.225c4.387,0.618,8.422-2.43,9.039-6.805c1.059-7.507,7.587-13.168,15.187-13.168c7.602,0,14.132,5.662,15.19,13.169
	c0.563,3.996,3.989,6.884,7.912,6.884c0.371,0,0.748-0.026,1.127-0.08c4.375-0.617,7.422-4.664,6.805-9.039
	c-2.166-15.355-15.508-26.935-31.034-26.935c-15.525,0-28.865,11.58-31.03,26.935C358.738,290.562,361.783,294.609,366.158,295.225z
	"/>
</svg>