<?xml version="1.0" encoding="iso-8859-1"?>
<svg fill="#000000" height="800px" width="800px" version="1.1" id="Capa_1" xmlns="http://www.w3.org/2000/svg" xmlns:xlink="http://www.w3.org/1999/xlink"
	 viewBox="0 0 490 490" xml:space="preserve">
<g>
	<g>
		<path d="M71.424,121.863h-3.19V68.474c0-2.771-1.642-5.279-4.183-6.386c-2.537-1.107-5.494-0.604-7.524,1.281L41.861,76.986
			c-2.818,2.618-2.981,7.026-0.363,9.846c2.617,2.819,7.025,2.982,9.844,0.364L54.3,84.45v37.413h-3.161
			c-3.848,0-6.967,3.119-6.967,6.967c0,3.847,3.119,6.966,6.967,6.966h20.285c3.848,0,6.967-3.119,6.967-6.966
			C78.391,124.982,75.271,121.863,71.424,121.863z"/>
		<path d="M170.714,121.863h-3.162V68.474c0-2.771-1.642-5.277-4.18-6.385c-2.539-1.108-5.493-0.608-7.523,1.275l-14.689,13.617
			c-2.821,2.616-2.989,7.025-0.373,9.846c2.616,2.822,7.023,2.989,9.845,0.374l2.987-2.77v37.432h-3.162
			c-3.848,0-6.967,3.119-6.967,6.967c0,3.847,3.119,6.966,6.967,6.966h20.258c3.847,0,6.966-3.119,6.966-6.966
			C177.68,124.982,174.561,121.863,170.714,121.863z"/>
		<path d="M125.605,92.411h-10.182V82.223c0-3.848-3.119-6.967-6.967-6.967s-6.967,3.119-6.967,6.967v10.188H91.307
			c-3.848,0-6.967,3.119-6.967,6.967c0,3.847,3.119,6.966,6.967,6.966h10.184v10.187c0,3.848,3.119,6.967,6.967,6.967
			s6.967-3.119,6.967-6.967v-10.187h10.182c3.848,0,6.967-3.119,6.967-6.966C132.572,95.53,129.453,92.411,125.605,92.411z"/>
		<g>
			<g>
				<path d="M247.795,115.696h-39.296c-3.847,0-6.966-3.118-6.966-6.966c0-3.847,3.119-6.966,6.966-6.966h39.296
					c3.848,0,6.967,3.119,6.967,6.966C254.762,112.578,251.643,115.696,247.795,115.696z"/>
			</g>
			<g>
				<path d="M247.795,135.712h-39.296c-3.847,0-6.966-3.119-6.966-6.967c0-3.848,3.119-6.967,6.966-6.967h39.296
					c3.848,0,6.967,3.119,6.967,6.967C254.762,132.593,251.643,135.712,247.795,135.712z"/>
			</g>
		</g>
		<g>
			<path d="M315.544,135.712h-36.341c-2.699,0-5.154-1.56-6.305-4.002c-1.148-2.442-0.782-5.329,0.939-7.408
				c14.612-17.65,26.886-36.09,27.213-41.446c0.331-5.425-3.94-7.591-7.436-7.415c-4.1,0.207-7.443,3.33-7.443,7.423
				c0,3.847-3.119,6.965-6.967,6.965c-3.848,0-6.967-3.118-6.967-6.965c0-11.776,9.59-21.357,21.377-21.357
				c12.183,0,21.369,9.18,21.369,21.357c0,9.061-11.587,26.146-21.333,38.914h21.895c3.849,0,6.967,3.119,6.967,6.967
				C322.511,132.593,319.392,135.712,315.544,135.712z"/>
		</g>
	</g>
	<g>
		<path d="M483.033,18.302H6.967C3.119,18.302,0,21.42,0,25.268V291.8c0,3.848,3.119,6.967,6.967,6.967h191.561
			c10.312,12.452,22.877,21.244,37.539,26.193c13.507,4.559,28.775,5.717,44.589,3.433v136.339c0,3.847,3.119,6.966,6.967,6.966
			h167.972c3.848,0,6.967-3.119,6.967-6.966V322.056c0-8.16-1.402-15.995-3.963-23.29h24.436c3.848,0,6.967-3.119,6.967-6.967
			V25.268C490,21.42,486.881,18.302,483.033,18.302z M448.627,457.765h-23.629v-97.202c0-3.848-3.119-6.967-6.967-6.967
			c-3.848,0-6.967,3.119-6.967,6.967v97.202H294.589V320.048c0-2.11-0.956-4.106-2.6-5.429c-1.646-1.323-3.802-1.828-5.861-1.375
			c-21.586,4.74-61.445,6.307-85.885-36.462c-9.851-17.237-14-49.797-4.48-70.792c2.866-6.319,9.073-11.681,16.48-9.41
			c6.819,2.092,10.666,9.343,8.574,16.164c-4.131,13.465-2.859,27.783,3.578,40.313c12.785,24.884,52.54,37.867,101.621,13.888
			c9.596,5.366,20.64,8.438,32.393,8.438c12.791,0,24.746-3.632,34.901-9.908c30.618,0.693,55.317,25.799,55.317,56.583V457.765z
			 M305.744,208.785c0-29.037,23.625-52.661,52.664-52.661c29.041,0,52.666,23.624,52.666,52.661
			c0,29.038-23.625,52.663-52.666,52.663C329.369,261.448,305.744,237.823,305.744,208.785z M476.066,284.833h-24.158
			c-9.776-15.665-25.526-27.237-44.039-31.507c10.645-11.809,17.138-27.429,17.138-44.541c0-36.72-29.876-66.594-66.599-66.594
			c-36.721,0-66.598,29.874-66.598,66.594c0,19.217,8.192,36.549,21.256,48.716c-36.648,15.294-66.982,7.282-76.278-10.812
			c-4.769-9.282-5.71-19.887-2.65-29.861c4.344-14.165-3.645-29.225-17.81-33.569c-13.208-4.051-26.885,2.931-33.255,16.976
			c-11.647,25.687-6.436,63.321,5.072,83.46c0.222,0.388,0.454,0.756,0.679,1.139H13.934V32.235h462.133V284.833z"/>
		<path d="M389.31,413.406l-20.775-88.341l17.784-26.664c2.135-3.201,1.271-7.527-1.931-9.662c-3.199-2.133-7.525-1.27-9.661,1.931
			l-14.34,21.5l-14.34-21.5c-2.135-3.201-6.459-4.064-9.662-1.931c-3.201,2.135-4.065,6.461-1.931,9.662l17.933,26.885
			l-19.72,88.194c-0.449,2.008,0.014,4.115,1.264,5.751l21.105,27.608c1.304,1.706,3.204,2.715,5.351,2.736
			c2.122,0,4.313-0.967,5.636-2.629l21.957-27.609C389.309,417.667,389.799,415.482,389.31,413.406z M360.388,431.28l-13.413-17.93
			l13.413-61.086l14.587,61.043L360.388,431.28z"/>
	</g>
</g>
</svg>