<?xml version="1.0" encoding="iso-8859-1"?>
<svg fill="#000000" version="1.1" id="Layer_1" xmlns="http://www.w3.org/2000/svg" xmlns:xlink="http://www.w3.org/1999/xlink"
	 viewBox="0 0 512 512" xml:space="preserve">
<g>
	<g>
		<path d="M425.488,32.018h-26.792c-23.336,0-44.53,9.304-60.106,24.377c-26.162-10.857-53.895-16.373-82.589-16.373
			c-55.747,0-106.628,21.232-144.983,56.032h-2.477v2.299c-16.606,15.543-30.765,33.668-41.824,53.734h-6.831v13.499
			c-12.737,27.52-19.862,58.148-19.862,90.412c0,19.676,2.639,39.098,7.845,57.863C19.479,328.453,0,358.025,0,392.08
			c0,48.47,39.432,87.902,87.902,87.902h24.015c23.634,0,45.102-9.393,60.916-24.62c26.333,11.017,54.262,16.616,83.168,16.616
			c63.846,0,121.301-27.856,160.874-72.042h11.226V386.33c9.908-13.052,18.37-27.255,25.14-42.378
			c4.458,0.249,8.719,1.951,12.099,4.891l10.31-11.853c-4.693-4.081-10.337-6.835-16.355-8.063
			c8.201-22.793,12.683-47.345,12.683-72.926c0-19.482-2.602-38.776-7.718-57.387C492.542,184.369,512,155.076,512,121.309v-2.777
			C512,70.828,473.191,32.018,425.488,32.018z M117.211,111.766h15.443V98.332c18.687-14.652,40.035-26.054,63.184-33.361
			c-9.372,8.381-18.141,18.785-26.117,31.085h-20.992v15.71h11.784c-20.002,37.787-31.365,85.833-32.359,136.903H55.963v15.71
			h72.214c0.302,13.447,1.335,26.77,3.075,39.8h-43.35c-8.816,0-17.328,1.32-25.364,3.746c-4.513-16.86-6.805-34.279-6.805-51.925
			C55.733,199.405,79.337,148.224,117.211,111.766z M111.916,464.272H87.901c-39.806,0-72.191-32.386-72.191-72.192
			s32.385-72.192,72.192-72.192h96.206v72.192C184.108,431.886,151.723,464.272,111.916,464.272z M183.649,442.788
			c1.093-1.542,2.149-3.112,3.143-4.724c2.998,3.248,6.065,6.272,9.195,9.067C191.836,445.825,187.723,444.371,183.649,442.788z
			 M247.631,455.703c-19.014-2.55-37.259-13.786-53.363-32.91c3.58-9.566,5.549-19.913,5.549-30.713v-48.178h4.152v-15.71h-4.152
			v-24.014h-52.724c-1.82-13-2.885-26.334-3.201-39.8h103.979L247.631,455.703z M248.085,96.056h-18.974v15.71h18.954
			l-0.172,136.904H143.868c1.041-51.475,13.028-99.498,34.033-135.909c19.299-33.45,43.992-53.225,70.234-56.529L248.085,96.056z
			 M327.823,69.007c-1.037,1.479-2.042,2.98-2.986,4.524c-2.88-3.096-5.823-5.983-8.824-8.662
			C319.985,66.119,323.921,67.504,327.823,69.007z M263.845,56.232c19.084,2.398,37.408,13.532,53.586,32.614
			c-0.863,2.354-1.61,4.764-2.268,7.209h-5.67v15.71h2.982c-0.174,2.235-0.29,4.487-0.29,6.766v89.291h52.723v0.001
			c1.867,13.338,2.948,27.025,3.231,40.846H263.603L263.845,56.232z M263.341,455.824l0.14-111.923h17.115v-15.71h-17.095
			l0.081-63.814H368.11c-0.633,27.35-4.356,53.709-10.885,77.849v-14.035h-22.988v15.71h22.526
			c-5.623,20.293-13.232,38.988-22.664,55.338C314.672,432.912,289.777,452.72,263.341,455.824z M316.162,447.029
			c11.548-10.325,22.182-23.711,31.545-39.939c10.731-18.599,19.239-39.985,25.309-63.187h22.523v-15.71h-18.838
			c4.215-20.309,6.631-41.776,7.121-63.814h72.214v-15.71h-72.184c-0.271-13.804-1.321-27.479-3.105-40.846h44.74
			c8.351,0,16.421-1.213,24.066-3.432c4.455,16.755,6.713,34.097,6.713,51.609C456.267,345.474,397.284,421.424,316.162,447.029z
			 M496.29,121.309c0,39.041-31.762,70.803-70.802,70.803h-97.596v-73.581c0-39.041,31.763-70.802,70.803-70.802h26.792
			c39.041,0,70.802,31.762,70.802,70.802V121.309z"/>
	</g>
</g>
<g>
	<g>
		<rect x="368.067" y="88.435" width="24.088" height="15.71"/>
	</g>
</g>
<g>
	<g>
		<rect x="368.067" y="112.523" width="87.974" height="15.71"/>
	</g>
</g>
<g>
	<g>
		<rect x="368.067" y="135.564" width="39.798" height="15.71"/>
	</g>
</g>
<g>
	<g>
		<rect x="416.243" y="135.564" width="24.088" height="15.71"/>
	</g>
</g>
<g>
	<g>
		<rect x="55.968" y="360.736" width="55.507" height="15.71"/>
	</g>
</g>
<g>
	<g>
		<rect x="55.968" y="383.777" width="15.71" height="15.71"/>
	</g>
</g>
<g>
	<g>
		<rect x="87.388" y="383.777" width="56.555" height="15.71"/>
	</g>
</g>
<g>
	<g>
		<rect x="55.968" y="407.865" width="15.71" height="15.71"/>
	</g>
</g>
<g>
	<g>
		<rect x="87.388" y="407.865" width="56.555" height="15.71"/>
	</g>
</g>
<g>
	<g>
		<path d="M461.993,381.644c-2.995,1.688-6.411,2.581-9.878,2.581h-8.63v15.71h8.63c6.164,0,12.247-1.593,17.592-4.605
			L461.993,381.644z"/>
	</g>
</g>
<g>
	<g>
		<rect x="410.871" y="328.196" width="22.988" height="15.71"/>
	</g>
</g>
<g>
	<g>
		<path d="M486.3,353.171l-14.969,4.767c0.627,1.969,0.945,4.03,0.946,6.125c0,3.464-0.89,6.876-2.574,9.868l13.69,7.704
			c3.006-5.34,4.594-11.417,4.594-17.574C487.986,360.346,487.419,356.682,486.3,353.171z"/>
	</g>
</g>
<g>
	<g>
		<rect x="219.296" y="328.196" width="22.988" height="15.71"/>
	</g>
</g>
<g>
	<g>
		<rect x="295.928" y="328.196" width="22.988" height="15.71"/>
	</g>
</g>
<g>
	<g>
		<rect x="68.348" y="96.059" width="24.109" height="15.71"/>
	</g>
</g>
<g>
	<g>
		<path d="M39.904,134.645l-15.569,2.09c1.391,10.352,7.227,19.567,16.017,25.281l8.564-13.17
			C43.968,145.631,40.685,140.455,39.904,134.645z"/>
	</g>
</g>
<g>
	<g>
		<path d="M50.266,97.362c-10.07,2.797-18.4,9.838-22.857,19.317l14.216,6.684c2.508-5.333,7.19-9.293,12.846-10.865L50.266,97.362z
			"/>
	</g>
</g>
<g>
	<g>
		<rect x="188.924" y="96.059" width="24.109" height="15.71"/>
	</g>
</g>
<g>
	<g>
		<rect x="269.306" y="96.059" width="24.109" height="15.71"/>
	</g>
</g>
</svg>