<?xml version="1.0" encoding="iso-8859-1"?>
<svg fill="#000000" height="800px" width="800px" version="1.1" id="Layer_1" xmlns="http://www.w3.org/2000/svg" xmlns:xlink="http://www.w3.org/1999/xlink"
	 viewBox="0 0 512 512" xml:space="preserve">
<g>
	<g>
		<path d="M300.81,344.482c-10.704,14.281-27.036,22.47-44.81,22.47v15.706c22.432,0,43.881-10.75,57.378-28.757L300.81,344.482z"/>
	</g>
</g>
<g>
	<g>
		<path d="M303.726,78.04c-12.582-16.956-29.532-26.293-47.726-26.293s-35.144,9.337-47.725,26.292
			c-12.062,16.252-18.703,37.736-18.703,60.495c0,22.758,6.642,44.242,18.703,60.495c12.582,16.955,29.531,26.292,47.725,26.292
			s35.144-9.337,47.726-26.292c12.061-16.252,18.703-37.736,18.703-60.493C322.43,115.776,315.787,94.292,303.726,78.04z
			 M256.001,209.615c-27.968,0-50.724-31.887-50.724-71.082s22.754-71.082,50.724-71.082c27.969,0,50.724,31.887,50.724,71.082
			S283.97,209.615,256.001,209.615z"/>
	</g>
</g>
<g>
	<g>
		<circle cx="201.084" cy="64.309" r="7.841"/>
	</g>
</g>
<g>
	<g>
		<circle cx="310.918" cy="64.309" r="7.841"/>
	</g>
</g>
<g>
	<g>
		<circle cx="201.084" cy="213.805" r="7.841"/>
	</g>
</g>
<g>
	<g>
		<circle cx="310.918" cy="213.805" r="7.841"/>
	</g>
</g>
<g>
	<g>
		<path d="M386.304,61.681h-42.74c-3.635-7.18-7.8-13.96-12.478-20.243C311.195,14.716,284.529,0,256.001,0
			s-55.194,14.716-75.086,41.437c-4.677,6.283-8.842,13.064-12.478,20.243h-42.709c-14.399,0-26.113,11.71-26.113,26.103v19.521
			v7.849v124.121c0,16.211,7.155,31.169,19.433,41.263c-1.066,3.003-1.651,6.23-1.651,9.593v28.757h35.861
			c1.531,20.196,8.918,38.782,20.46,54.067L147.694,512h216.613l-26.025-139.047c11.542-15.285,18.929-33.871,20.46-54.067h35.861
			v-28.757c0-3.363-0.585-6.591-1.651-9.593c12.278-10.093,19.433-25.051,19.433-41.263V115.153v-7.849V87.783
			C412.386,73.391,400.686,61.681,386.304,61.681z M345.389,496.294H166.612l20.373-108.856
			c18.281,16.513,42.493,26.582,69.015,26.582c26.521,0,50.733-10.069,69.014-26.582L345.389,496.294z M256.001,398.315
			c-45.506,0-82.974-34.97-86.963-79.43h173.925C338.975,363.345,301.507,398.315,256.001,398.315z M378.898,303.179H133.103
			v-13.051c0-7.203,5.859-13.062,13.062-13.062h219.672c7.201,0,13.062,5.859,13.062,13.062V303.179z M396.68,107.304h-23.977
			v15.706h23.977v116.263c0,11.068-4.731,21.302-12.876,28.414c-4.927-3.953-11.174-6.325-17.967-6.325H146.164
			c-6.793,0-13.041,2.373-17.968,6.325c-8.146-7.113-12.876-17.346-12.876-28.414V123.01h23.977v-15.706H115.32V87.783
			c0-5.734,4.669-10.397,10.408-10.397h35.844c-6.999,18.789-10.703,39.602-10.703,61.147c0,46.747,17.629,89.998,47.158,115.696
			l10.31-11.847c-26.151-22.757-41.763-61.579-41.763-103.848c0.001-67.727,40.117-122.829,89.426-122.829
			c49.309,0,89.425,55.101,89.425,122.829c0,42.269-15.612,81.091-41.763,103.848l10.31,11.847
			c29.53-25.697,47.159-68.948,47.159-115.696c0-21.545-3.704-42.358-10.703-61.147h35.876c5.721,0,10.376,4.665,10.376,10.397
			V107.304z"/>
	</g>
</g>
</svg>