<?xml version="1.0" encoding="iso-8859-1"?>
<svg fill="#000000" height="800px" width="800px" version="1.1" id="Layer_1" xmlns="http://www.w3.org/2000/svg" xmlns:xlink="http://www.w3.org/1999/xlink"
	 viewBox="0 0 512 512" xml:space="preserve">
<g>
	<g>
		<path d="M512,298.34c0-54.091-37.452-98.096-83.487-98.096c-46.035,0-83.487,44.005-83.487,98.096
			c0,49.934,31.916,91.27,73.038,97.33v45.245H266.449v-35.697h71.402c7.05,0,12.179-7.15,9.883-13.842l-24.882-72.491
			c4.541,0,8.973,0.003,12.114-3.914c2.714-3.383,2.546-7.219,1.305-11.111c-1.543-4.841-4.924-14.436-4.924-14.436
			s-19.782-57.999-21.264-62.343c3.092,0,6.36,0.343,9.226-1.062c4.734-2.32,7.035-8.014,5.222-12.975L266.03,12.755
			c-1.301-4.456-5.388-7.52-10.03-7.52s-8.729,3.064-10.03,7.519l-58.696,200.948c-1.461,5.001,1.125,10.476,5.908,12.513
			c2.752,1.171,8.732,0.866,8.732,0.866l-25.863,75.829c0,0-1.656,4.972-1.056,7.74c1.561,7.204,7.999,8.236,14.154,8.236
			l-24.882,72.491c-2.297,6.693,2.833,13.842,9.883,13.842h71.402v35.697H94.041v-45.245c41.122-6.06,73.038-47.396,73.038-97.33
			c0-54.091-37.452-98.096-83.487-98.096c-46.035,0-83.487,44.005-83.487,98.096c0,49.934,31.916,91.27,73.038,97.33v45.245h-8.882
			c-5.77,0-10.449,4.678-10.449,10.449s4.679,10.449,10.449,10.449h381.878c5.77,0,10.449-4.678,10.449-10.449
			s-4.679-10.449-10.449-10.449h-7.177V395.67C480.084,389.61,512,348.274,512,298.34z M74.496,305.412
			c-4.081-4.08-10.698-4.08-14.778,0.001c-4.08,4.079-4.08,10.696,0,14.777l13.425,13.423v40.828
			c-29.553-6.154-52.14-37.927-52.14-76.101c0-42.567,28.077-77.198,62.589-77.198c34.512,0,62.589,34.631,62.589,77.198
			c0,38.174-22.588,69.947-52.14,76.101v-40.828l22.638-22.638c4.08-4.08,4.08-10.697,0-14.778c-4.081-4.08-10.696-4.08-14.778,0
			l-18.309,18.31L74.496,305.412z M188.783,384.32l24.881-72.491c1.659-4.835-0.559-10.347-5.1-12.684
			c-2.743-1.412-5.775-1.158-8.754-1.158l26.598-77.983c1.754-5.146-0.882-10.895-5.868-12.982c-2.888-1.208-6.23-0.84-9.299-0.84
			L256,52.951l44.756,153.231c-3.072,0-6.407-0.37-9.297,0.84c-4.986,2.087-7.625,7.831-5.868,12.982l26.598,77.983
			c-2.976,0-6.013-0.251-8.752,1.158c-4.541,2.337-6.76,7.846-5.1,12.684l24.882,72.491H188.783z M428.513,314.507l-9.096-9.095
			c-4.081-4.08-10.698-4.08-14.777,0.001c-4.08,4.079-4.08,10.696,0,14.777l13.425,13.424v40.828
			c-29.553-6.154-52.14-37.927-52.14-76.101c0-42.567,28.077-77.198,62.589-77.198c34.512,0,62.589,34.631,62.589,77.198
			c0,38.174-22.588,69.947-52.14,76.101v-40.828l22.638-22.638c4.08-4.08,4.08-10.697,0-14.778c-4.081-4.08-10.696-4.08-14.777,0
			L428.513,314.507z"/>
	</g>
</g>
<g>
	<g>
		<path d="M28.735,440.915H10.449C4.678,440.915,0,445.593,0,451.364s4.678,10.449,10.449,10.449h18.286
			c5.77,0,10.449-4.677,10.449-10.449C39.184,445.593,34.505,440.915,28.735,440.915z"/>
	</g>
</g>
<g>
	<g>
		<path d="M500.534,440.915H482.22c-5.77,0-10.449,4.678-10.449,10.449s4.679,10.449,10.449,10.449h18.314
			c5.77,0,10.449-4.678,10.449-10.449C510.983,445.593,506.305,440.915,500.534,440.915z"/>
	</g>
</g>
<g>
	<g>
		<path d="M57.785,332.768c-7.544-9.132-11.698-21.359-11.698-34.427c0-3.687,0.336-7.358,1.001-10.91
			c1.062-5.673-2.677-11.131-8.349-12.193c-5.667-1.064-11.13,2.678-12.192,8.35c-0.901,4.815-1.358,9.778-1.358,14.753
			c0,17.916,5.855,34.868,16.483,47.736c2.067,2.503,5.053,3.796,8.062,3.796c2.343,0,4.701-0.786,6.649-2.394
			C60.833,343.803,61.459,337.217,57.785,332.768z"/>
	</g>
</g>
<g>
	<g>
		<path d="M74.398,239.898c-2.645-5.128-8.947-7.145-14.075-4.502c-5.421,2.794-10.441,6.518-14.92,11.072
			c-4.047,4.113-3.993,10.729,0.121,14.776c2.034,2.002,4.681,3.001,7.326,3.001c2.703,0,5.404-1.042,7.45-3.121
			c2.92-2.968,6.148-5.374,9.594-7.149C75.025,251.33,77.04,245.029,74.398,239.898z"/>
	</g>
</g>
<g>
	<g>
		<path d="M71.837,485.867H37.139c-5.77,0-10.449,4.679-10.449,10.449c0,5.77,4.679,10.449,10.449,10.449h34.698
			c5.77,0,10.449-4.679,10.449-10.449C82.286,490.546,77.607,485.867,71.837,485.867z"/>
	</g>
</g>
<g>
	<g>
		<path d="M469.523,485.867h-54.128c-5.77,0-10.449,4.679-10.449,10.449c0,5.77,4.679,10.449,10.449,10.449h54.128
			c5.77,0,10.449-4.679,10.449-10.449C479.972,490.546,475.293,485.867,469.523,485.867z"/>
	</g>
</g>
<g>
	<g>
		<path d="M379.868,485.867H107.363c-5.77,0-10.449,4.679-10.449,10.449c0,5.77,4.679,10.449,10.449,10.449h272.505
			c5.77,0,10.449-4.679,10.449-10.449C390.317,490.546,385.638,485.867,379.868,485.867z"/>
	</g>
</g>
<g>
	<g>
		<path d="M402.705,332.768c-7.544-9.132-11.698-21.359-11.698-34.427c0-3.687,0.336-7.358,1.001-10.91
			c1.062-5.673-2.677-11.131-8.349-12.193c-5.669-1.064-11.13,2.678-12.192,8.35c-0.901,4.815-1.358,9.778-1.358,14.753
			c0,17.916,5.855,34.868,16.483,47.736c2.067,2.503,5.053,3.796,8.062,3.796c2.343,0,4.701-0.786,6.649-2.394
			C405.753,343.803,406.38,337.217,402.705,332.768z"/>
	</g>
</g>
<g>
	<g>
		<path d="M419.319,239.898c-2.645-5.128-8.947-7.145-14.075-4.502c-5.422,2.794-10.441,6.518-14.92,11.072
			c-4.047,4.113-3.993,10.729,0.121,14.776c2.033,2.002,4.68,3.001,7.326,3.001c2.703,0,5.404-1.042,7.45-3.121
			c2.92-2.968,6.148-5.374,9.594-7.149C419.946,251.33,421.961,245.029,419.319,239.898z"/>
	</g>
</g>
</svg>