<?xml version='1.0' encoding='iso-8859-1'?>
<svg fill="#000000" height="800px" width="800px" version="1.1" xmlns="http://www.w3.org/2000/svg" viewBox="0 0 469.994 469.994" xmlns:xlink="http://www.w3.org/1999/xlink" enable-background="new 0 0 469.994 469.994">
  <g>
    <path d="m211.538,263.055c3.52,9.903 12.947,16.557 23.459,16.557 10.511,0 19.938-6.653 23.459-16.556 1.387-3.903-0.652-8.191-4.555-9.579-3.902-1.387-8.191,0.652-9.579,4.555-1.399,3.936-5.147,6.581-9.325,6.581-4.179,0-7.926-2.645-9.325-6.58-1.387-3.903-5.676-5.941-9.579-4.555-3.903,1.385-5.942,5.674-4.555,9.577z"/>
    <path d="m191.104,228.516h10.427c1.029,2.913 3.808,5 7.073,5 4.142,0 7.5-3.358 7.5-7.5v-5c0-4.142-3.358-7.5-7.5-7.5h-17.5c-4.142,0-7.5,3.358-7.5,7.5s3.358,7.5 7.5,7.5z"/>
    <path d="m261.389,233.516c3.266,0 6.044-2.087 7.073-5h10.427c4.142,0 7.5-3.358 7.5-7.5s-3.358-7.5-7.5-7.5h-17.5c-4.142,0-7.5,3.358-7.5,7.5v5c0,4.142 3.358,7.5 7.5,7.5z"/>
    <path d="m390.196,460.238c-10.174-32.289-30.802-61.267-58.086-81.595-28.23-21.033-61.811-32.151-97.113-32.151s-68.883,11.118-97.112,32.15c-27.284,20.328-47.913,49.306-58.086,81.595-1.245,3.951 0.949,8.163 4.899,9.407 3.951,1.246 8.163-0.949 9.407-4.899 14.847-47.12 51.328-82.441 96.574-96.538 9.316,15.339 26.073,24.953 44.318,24.953s35.003-9.613 44.318-24.953c45.246,14.098 81.727,49.418 96.574,96.539 1.008,3.201 3.964,5.248 7.151,5.248 0.747,0 1.506-0.112 2.256-0.349 3.951-1.245 6.144-5.457 4.9-9.407zm-155.199-82.079c-11.356,0-21.888-5.254-28.781-13.879 9.339-1.83 18.966-2.788 28.781-2.788 9.816,0 19.442,0.958 28.782,2.788-6.894,8.625-17.426,13.879-28.782,13.879z"/>
    <path d="m119.888,257.671c6.976,6.349 15.789,9.984 24.499,10.296 11.2,39.489 47.58,68.501 90.61,68.501s79.41-29.011 90.61-68.501c8.709-0.312 17.524-3.947 24.499-10.296 14.679-13.363 17.092-34.702 5.379-47.569-7.022-7.714-17.817-10.842-28.681-8.81-3.636-15.993-11.377-30.652-22.663-42.86l-59.978-116.985 19.123-19.123c2.929-2.929 2.929-7.678 0-10.606-2.928-2.929-7.677-2.929-10.606,0l-10.183,10.183v-14.401c0-4.142-3.358-7.5-7.5-7.5s-7.5,3.358-7.5,7.5v14.401l-10.183-10.183c-2.929-2.929-7.678-2.929-10.606,0-2.929,2.929-2.929,7.678 0,10.606l19.123,19.123-59.979,116.985c-11.286,12.208-19.026,26.867-22.663,42.86-10.863-2.032-21.658,1.096-28.681,8.81-11.712,12.867-9.299,34.206 5.38,47.569zm115.109-201.225l50.657,98.803h-101.314l50.657-98.803zm-109.397,163.753c4.538-4.984 12.689-5.943 20.285-2.39 2.166,1.014 4.688,0.933 6.785-0.217 2.098-1.15 3.521-3.233 3.831-5.605 2.032-15.561 8.54-29.926 18.879-41.738h52.927c3.449,15.865 17.594,27.787 34.477,27.787 4.142,0 7.5-3.358 7.5-7.5s-3.358-7.5-7.5-7.5c-8.536,0-15.843-5.306-18.833-12.787h50.662c10.339,11.813 16.847,26.177 18.879,41.738 0.31,2.372 1.733,4.455 3.831,5.605 2.099,1.15 4.619,1.23 6.785,0.217 7.597-3.555 15.748-2.593 20.285,2.39 6.145,6.75 4.178,18.584-4.385,26.379-3.378,3.075-7.369,5.129-11.407,5.98 0.366-3.369 0.56-6.788 0.56-10.253 0-4.142-3.358-7.5-7.5-7.5s-7.5,3.358-7.5,7.5c0,43.65-35.513,79.163-79.165,79.163s-79.165-35.512-79.165-79.163c0-4.142-3.358-7.5-7.5-7.5s-7.5,3.358-7.5,7.5c0,3.464 0.194,6.884 0.56,10.253-4.038-0.851-8.029-2.905-11.407-5.98-8.561-7.795-10.528-19.628-4.384-26.379z"/>
  </g>
</svg>