<?xml version="1.0" encoding="utf-8"?>
<svg fill="#000000" version="1.1" id="Scientist" xmlns="http://www.w3.org/2000/svg" xmlns:xlink="http://www.w3.org/1999/xlink"
	 width="800px" height="800px" viewBox="0 0 243 256" enable-background="new 0 0 243 256" xml:space="preserve">
<path d="M180.743,74.073c3.551,0,6.495-2.945,6.495-6.495s-2.945-6.495-6.495-6.495c-3.551,0-6.495,2.945-6.495,6.495
	S177.193,74.073,180.743,74.073z M196.159,58.831c2.598,0,4.763-2.165,4.763-4.763s-2.165-4.763-4.763-4.763
	c-2.598,0-4.763,2.165-4.763,4.763S193.561,58.831,196.159,58.831z M210.905,150.373l-17.95-37.006V94.079h3.464v-7.795h-29.446
	v7.795h3.464v19.288l-17.95,37.006h-32.282v12.125h120.382v-12.125H210.905z M178.232,115.151V94.079h6.928v21.071l7.017,14.437
	h-20.963L178.232,115.151z M60.446,48.888c3.348,0,6.062,2.714,6.062,6.062c0,3.348-2.714,6.062-6.062,6.062
	s-6.062-2.714-6.062-6.062C54.384,51.603,57.098,48.888,60.446,48.888z M60.551,43.571c11.633,0,20.921-9.107,20.921-20.74
	S72.003,2,60.641,2c-7.575,0-14.428,4.329-18.035,10.64c-0.451,0.631-0.992,1.353-1.623,1.984c-3.967,3.967-10.55,3.967-14.519,0
	c-0.631-0.631-1.263-1.173-1.623-1.984C27.366,30.135,42.336,43.571,60.551,43.571z M149.669,103.127
	c-2.584-2.638-6.222-4.152-9.977-4.152h-3.897V86.85h-14.723v12.125h-9.302l-4.903-27.112l-0.061-0.278
	c-3.409-13.245-15.342-22.496-29.02-22.496h-4.064L60.489,77.613L47.256,49.089h-4.064c-13.678,0-25.611,9.25-29.02,22.496
	L2.82,125.028c-0.85,3.287-0.365,6.706,1.371,9.641c1.758,2.972,4.575,5.064,7.916,5.884c3.495,0.875,7.019,0.226,9.853-1.52
	l-7.565,38.234h20.36v65.907c0,5.976,4.85,10.826,10.826,10.826c5.976,0,10.826-4.85,10.826-10.826v-65.907h6.928v65.907
	c0,5.976,4.85,10.826,10.826,10.826c5.976,0,10.826-4.85,10.826-10.826v-65.907h23.394l-11.687-53.176h24.378v5.492
	c0,3.694,2.625,6.993,6.283,7.51c4.551,0.644,8.44-2.861,8.44-7.285v-5.716h3.831c3.579,0.052,7.062-1.337,9.645-3.837
	c2.43-2.351,3.796-5.427,3.845-8.642C153.18,108.475,151.956,105.461,149.669,103.127z M98.636,116.297l-7.41-32.71H79.811
	l18.875,85.886H23.883l16.995-85.886H29.503l-9.491,45.953c-0.682,2.57-3.364,4.115-6.031,3.448c-1.304-0.32-2.4-1.133-3.082-2.287
	c-0.679-1.148-0.864-2.485-0.522-3.765L21.74,73.45c2.472-9.466,10.835-16.155,20.547-16.548l18.202,39.232L78.69,56.902
	c9.692,0.392,18.043,7.057,20.533,16.493l6.036,33.374h15.813v9.528H98.636z M143.849,114.653c-1.09,1.055-2.621,1.658-4.157,1.644
	h-3.897v-9.528h3.898c1.649,0,3.298,0.677,4.41,1.813c0.572,0.584,1.247,1.555,1.22,2.89
	C145.304,112.622,144.781,113.751,143.849,114.653z"/>
</svg>