<?xml version="1.0" encoding="iso-8859-1"?>
<svg fill="#000000" height="800px" width="800px" version="1.1" id="Layer_1" xmlns="http://www.w3.org/2000/svg" xmlns:xlink="http://www.w3.org/1999/xlink"
	 viewBox="0 0 512 512" xml:space="preserve">
<g>
	<g>
		<path d="M422.957,66.783H372.87V50.087C372.87,22.469,350.401,0,322.783,0H189.217c-27.618,0-50.087,22.469-50.087,50.087v16.696
			H89.044c-27.618,0-50.087,22.469-50.087,50.087v33.391c0,9.22,7.475,16.696,16.696,16.696h16.696v294.956
			c0,27.618,22.469,50.087,50.087,50.087h267.13c27.618,0,50.087-22.469,50.087-50.087V166.957h16.696
			c9.22,0,16.696-7.475,16.696-16.696V116.87C473.043,89.252,450.574,66.783,422.957,66.783z M172.522,50.087
			c0-9.206,7.49-16.696,16.696-16.696h133.565c9.206,0,16.696,7.49,16.696,16.696v16.696H172.522V50.087z M406.261,461.913
			c0,9.206-7.49,16.696-16.696,16.696h-267.13c-9.206,0-16.696-7.49-16.696-16.696V166.957h300.522V461.913z M439.652,133.565
			c-39.037,0-328.98,0-367.304,0V116.87c0-9.206,7.49-16.696,16.696-16.696c8.242,0,327.901,0,333.913,0
			c9.206,0,16.696,7.49,16.696,16.696V133.565z"/>
	</g>
</g>
<g>
	<g>
		<path d="M363.283,339.521l-9.913-14.869c-5.114-7.673-15.482-9.746-23.152-4.631c-7.672,5.116-9.746,15.481-4.631,23.154
			l9.913,14.869c7.403,11.103-0.534,25.956-13.892,25.956h-9.19c2.734-6.133,1.603-13.57-3.428-18.602
			c-6.521-6.519-17.091-6.52-23.611,0l-22.386,22.384c-7.713,6.327-8.142,17.922-1.225,24.838l23.611,23.611
			c6.519,6.52,17.091,6.521,23.611,0c5.097-5.097,6.191-12.662,3.319-18.839h9.301C361.567,417.39,385.445,372.76,363.283,339.521z"
			/>
	</g>
</g>
<g>
	<g>
		<path d="M322.937,228.516c-6.965-1.868-14.063,0.969-17.976,6.546l-4.65-8.055c-20.021-34.678-70.604-32.896-88.275,2.844
			l-7.92,16.019c-4.088,8.268-0.701,18.281,7.565,22.368c8.265,4.087,18.278,0.699,22.367-7.566l7.92-16.019
			c5.911-11.956,22.746-12.514,29.425-0.948l4.595,7.958c-6.679,0.698-12.554,5.398-14.395,12.271
			c-2.386,8.907,2.898,18.061,11.805,20.448l30.634,8.209c9.474,3.532,19.584-2.101,22.067-11.372l8.643-32.254
			C337.129,240.057,331.844,230.902,322.937,228.516z"/>
	</g>
</g>
<g>
	<g>
		<path d="M226.101,396.786c-0.593-9.202-8.534-16.18-17.735-15.586l-17.833,1.15c-13.322,0.844-22.212-13.441-15.534-25.009
			l4.592-7.954c3.945,5.434,10.947,8.172,17.828,6.327c8.907-2.386,14.191-11.541,11.805-20.448l-8.193-30.576
			c-1.616-9.808-11.412-16.028-20.896-13.482l-32.254,8.642c-8.907,2.386-14.192,11.541-11.806,20.448
			c1.867,6.962,7.87,11.693,14.658,12.294l-4.65,8.054c-19.307,33.441,4.972,75.132,43.349,75.132c2.178,0,1.736-0.007,21.084-1.254
			C219.717,413.927,226.696,405.987,226.101,396.786z"/>
	</g>
</g>
</svg>